<?xml version="1.0" encoding="UTF-8" standalone="no"?>
<svg
   version="1.1"
   width="251.2084"
   height="346.34631"
   viewBox="0 0 251.2084 346.34631"
   id="svg50"
   xmlns="http://www.w3.org/2000/svg"
   xmlns:svg="http://www.w3.org/2000/svg">
  <defs
     id="defs50" />
  <path
     d="m 111.45948,263.67139 -0.65968,70.83632 26.479,0.0651 0.65968,-70.83632 z"
     id="path53"
     style="stroke-width:1.25499" />
  <path
     d="m 111.87085,177.09327 -0.65625,70.83632 26.47901,0.0651 0.65625,-70.83632 z"
     style="stroke-width:1.25499"
     id="path52" />
  <path
     d="m 112.28491,90.517092 -0.65625,70.836328 26.47901,0.0651 0.65625,-70.836323 z"
     id="path51"
     style="stroke-width:1.25499" />
  <path
     d="m 112.69897,3.9389651 -0.65625,70.8363279 26.47901,0.06504 0.65625,-70.8363283 z"
     id="path50"
     style="stroke-width:1.25499" />
  <path
     id="path18"
     style="fill:#000000;fill-opacity:1;stroke-linejoin:miter"
     d="m 65.820312,83.498047 c -4.593515,0.215306 -6.152677,5.268685 -8.898203,8.213199 C 38.278151,116.62976 19.634192,141.54828 0.99023438,166.4668 c -2.83750458,4.46126 1.03756942,8.71774 3.73179282,12.07004 19.1846708,24.78419 38.2012768,49.71196 57.4908638,74.40652 3.198651,3.27254 9.151508,0.0604 8.39063,-4.39354 -0.03125,-53.23977 0.06249,-106.48588 -0.04687,-159.721695 0.24461,-2.714275 -2.014228,-5.25621 -4.736339,-5.330078 z" />
  <path
     id="path19"
     style="fill:#000000;fill-opacity:1;stroke-linejoin:miter"
     d="m 185.38672,83.498047 c -5.14905,0.277288 -4.93792,6.038398 -4.78323,9.856942 0.0195,52.075841 -0.0391,104.155561 0.0293,156.228991 0.0165,4.63683 6.78367,6.42764 9.15539,2.46706 20.15696,-26.20997 40.46312,-52.31451 60.52686,-78.59034 2.188,-3.88246 -0.2104,-7.62612 -2.75553,-10.54349 -19.30825,-25.80639 -38.61649,-51.61277 -57.92474,-77.419163 -0.96774,-1.321423 -2.61948,-2.087177 -4.24805,-2 z" />
</svg>
