<?xml version="1.0" encoding="UTF-8" standalone="no"?>
<svg
   version="1.1"
   width="258.20947"
   height="330.63379"
   viewBox="0 0 258.20947 330.63379"
   id="svg50"
   xmlns="http://www.w3.org/2000/svg"
   xmlns:svg="http://www.w3.org/2000/svg">
  <defs
     id="defs50" />
  <path
     d="m 114.99631,259.7326 -0.65625,70.8362 26.47901,0.065 0.65625,-70.8364 z"
     style="stroke-width:1.25499"
     id="path53" />
  <path
     d="m 115.4111,173.1544 -0.65966,70.8363 26.47901,0.065 0.65966,-70.8363 z"
     style="stroke-width:1.25499"
     id="path52" />
  <path
     d="m 115.82516,86.57631 -0.65966,70.83629 26.47901,0.065 0.65966,-70.83629 z"
     style="stroke-width:1.25499"
     id="path51" />
  <path
     d="m 116.23924,0 -0.65968,70.83631 26.479,0.063 0.65968,-70.8363 z"
     style="stroke-width:1.25499"
     id="path50" />
  <path
     id="path43"
     style="fill:#000000;fill-opacity:1;stroke-linejoin:miter"
     d="m 6.3793735,79.95371 c -4.91171,-0.117 -6.96523998,4.5372 -6.23632998,8.7416 0.0169,52.30119 -0.0339,104.60579 0.0254,156.90489 -0.004,4.8047 7.01418998,6.4658 9.32575998,2.3238 21.4081905,-26.4719 42.9958305,-52.8314 64.2914205,-79.3739 1.89802,-4.4107 -2.77165,-7.4685 -4.82563,-10.8076 -19.43572,-25.2809 -38.87144,-50.5619 -58.30716,-75.84279 -0.9851505,-1.3076 -2.6435405,-2.0564 -4.2734605,-1.946 z" />
  <path
     id="path44"
     style="fill:#000000;fill-opacity:1;stroke-linejoin:miter"
     d="m 251.90671,79.95371 c -4.60754,0.1655 -6.23591,5.2156 -9.03067,8.1332 -19.42905,25.37169 -39.0573,50.60479 -58.36179,76.06309 -2.00684,4.4938 2.93232,7.4651 5.07245,10.7946 20.08843,24.6814 40.02595,49.4983 60.20868,74.0951 3.21461,3.2216 9.10409,-0.01 8.34768,-4.4336 0,-53.0855 0,-106.1711 0,-159.25659 0.0923,-3.5089 -3.25795,-5.067 -6.23635,-5.3958 z" />
</svg>
