<?xml version="1.0" encoding="UTF-8" standalone="no"?>
<!-- Based on materialdesignicons.com backspace-outline -->

<svg
   version="1.1"
   width="24"
   height="24"
   viewBox="0 0 24 24"
   id="svg1"
   xmlns="http://www.w3.org/2000/svg"
   xmlns:svg="http://www.w3.org/2000/svg">
  <defs
     id="defs1" />
  <path
     id="text3"
     style="font-weight:600;font-size:13.3333px;font-family:FreeSans;-inkscape-font-specification:'FreeSans Semi-Bold'"
     d="m 17.517249,16.883978 c -0.599999,0 -1.199997,0 -1.799996,0 -0.542221,-2.528883 -1.084441,-5.057765 -1.626662,-7.5866476 -0.528888,2.5288826 -1.057775,5.0577646 -1.586663,7.5866476 -0.599998,0 -1.199997,0 -1.799995,0 -0.9155533,-3.239992 -1.8311066,-6.479984 -2.7466599,-9.7199755 0.706665,0 1.4133299,0 2.1199949,0 0.502221,2.4266605 1.004442,4.8533215 1.506663,7.2799815 0.502221,-2.426661 1.004441,-4.853321 1.506662,-7.2799815 0.657776,0 1.315553,0 1.973329,0 0.524443,2.4311048 1.048886,4.8622095 1.573329,7.2933145 0.484443,-2.431105 0.968887,-4.8622097 1.45333,-7.2933145 0.706665,0 1.413329,0 2.119994,0 C 19.3128,10.403994 18.415024,13.643986 17.517249,16.883978 Z M 22,3 c 1.232984,-0.040548 2.168377,1.1810823 2,2.36 -0.0069,4.6147431 0.01374,9.230179 -0.01033,13.844488 C 23.906211,20.390581 22.701093,21.155835 21.58,21 16.677486,20.9972 11.77479,21.0056 6.8723901,20.9958 5.6427252,20.925088 5.1783178,19.667046 4.5442984,18.812248 3.0295323,16.541498 1.5147661,14.270749 0,12 1.8548324,9.2326362 3.6795639,6.4439141 5.5533789,3.6900195 6.2693382,2.7489141 7.4877473,3.0506966 8.5000001,3 13,3 17.5,3 22,3 Z m 0,2 C 17,5 12,5 7,5 5.4266667,7.3333333 3.8533333,9.6666667 2.28,12 c 1.5733333,2.333333 3.1466667,4.666667 4.72,7 5,0 10,0 15,0 0,-4.666667 0,-9.3333333 0,-14 z" />
</svg>
