<?xml version="1.0" encoding="UTF-8" standalone="no"?>
<!-- Based on materialdesignicons.com backspace-reverse-outline -->

<svg
   version="1.1"
   width="24"
   height="24"
   viewBox="0 0 24 24"
   id="svg1"
   xmlns="http://www.w3.org/2000/svg"
   xmlns:svg="http://www.w3.org/2000/svg">
  <defs
     id="defs1" />
  <path
     id="text3"
     style="font-weight:600;font-size:13.3333px;font-family:FreeSans;-inkscape-font-specification:'FreeSans Semi-Bold'"
     d="m 13.559976,16.719975 c -0.599999,0 -1.199997,0 -1.799996,0 -0.542221,-2.528883 -1.084441,-5.057765 -1.626662,-7.586648 -0.5288876,2.528883 -1.0577752,5.057765 -1.5866628,7.586648 -0.5999985,0 -1.1999969,0 -1.7999954,0 -0.9155532,-3.239992 -1.8311065,-6.479984 -2.7466597,-9.7199759 0.7066649,0 1.4133297,0 2.1199946,0 0.502221,2.4266606 1.0044419,4.8533209 1.5066629,7.2799819 0.5022209,-2.426661 1.0044419,-4.8533213 1.5066628,-7.2799819 0.6577762,0 1.3155526,0 1.9733286,0 0.524443,2.431105 1.048886,4.8622099 1.573329,7.2933149 0.484443,-2.431105 0.968887,-4.8622099 1.45333,-7.2933149 0.706665,0 1.413329,0 2.119994,0 -0.897775,3.2399919 -1.795551,6.4799839 -2.693326,9.7199759 z M 2,3 C 0.76701608,2.9594518 -0.16837714,4.1810822 0,5.36 0.00686259,9.9747431 -0.01373935,14.590179 0.01032577,19.204488 0.09378911,20.390581 1.2989069,21.155835 2.42,21 c 4.902514,-0.0028 9.80521,0.0056 14.70761,-0.0042 1.229665,-0.07074 1.694072,-1.328782 2.328092,-2.18358 C 20.970468,16.541498 22.485234,14.270749 24,12 22.145168,9.2326362 20.320436,6.4439141 18.446621,3.6900195 17.730662,2.7489141 16.512253,3.0506966 15.5,3 11,3 6.5,3 2,3 Z m 0,2 c 5,0 10,0 15,0 1.573333,2.3333333 3.146667,4.6666667 4.72,7 C 20.146667,14.333333 18.573333,16.666667 17,19 12,19 7,19 2,19 2,14.333333 2,9.6666667 2,5 Z" />
</svg>
