<?xml version="1.0" encoding="utf-8"?>
<!-- IcoMoon-Free 327-move-up CC BY 4.0 -->
<!-- Generated by IcoMoon.io -->
<!DOCTYPE svg PUBLIC "-//W3C//DTD SVG 1.1//EN" "http://www.w3.org/Graphics/SVG/1.1/DTD/svg11.dtd">
<svg version="1.1" xmlns="http://www.w3.org/2000/svg" xmlns:xlink="http://www.w3.org/1999/xlink" width="16" height="16" viewBox="0 0 16 16">
<path fill="#000000" d="M11 8v6h1v-6h2.5l-3-3-3 3z"></path>
<path fill="#000000" d="M1 3h1.5v1h-1.5v-1z"></path>
<path fill="#000000" d="M3 3h1.5v1h-1.5v-1z"></path>
<path fill="#000000" d="M5 3h1v1.5h-1v-1.5z"></path>
<path fill="#000000" d="M1 6.5h1v1.5h-1v-1.5z"></path>
<path fill="#000000" d="M2.5 7h1.5v1h-1.5v-1z"></path>
<path fill="#000000" d="M4.5 7h1.5v1h-1.5v-1z"></path>
<path fill="#000000" d="M1 4.5h1v1.5h-1v-1.5z"></path>
<path fill="#000000" d="M5 5h1v1.5h-1v-1.5z"></path>
<path fill="#000000" d="M5 11v3h-3v-3h3zM6 10h-5v5h5v-5z"></path>
</svg>
