<?xml version="1.0" encoding="utf-8"?>
<!-- IcoMoon-Free 328-move-down CC BY 4.0 -->
<!-- Generated by IcoMoon.io -->
<!DOCTYPE svg PUBLIC "-//W3C//DTD SVG 1.1//EN" "http://www.w3.org/Graphics/SVG/1.1/DTD/svg11.dtd">
<svg version="1.1" xmlns="http://www.w3.org/2000/svg" xmlns:xlink="http://www.w3.org/1999/xlink" width="16" height="16" viewBox="0 0 16 16">
<path fill="#000000" d="M12 11v-6h-1v6h-2.5l3 3 3-3z"></path>
<path fill="#000000" d="M5 4v3h-3v-3h3zM6 3h-5v5h5v-5z"></path>
<path fill="#000000" d="M1 10h1.5v1h-1.5v-1z"></path>
<path fill="#000000" d="M3 10h1.5v1h-1.5v-1z"></path>
<path fill="#000000" d="M5 10h1v1.5h-1v-1.5z"></path>
<path fill="#000000" d="M1 13.5h1v1.5h-1v-1.5z"></path>
<path fill="#000000" d="M2.5 14h1.5v1h-1.5v-1z"></path>
<path fill="#000000" d="M4.5 14h1.5v1h-1.5v-1z"></path>
<path fill="#000000" d="M1 11.5h1v1.5h-1v-1.5z"></path>
<path fill="#000000" d="M5 12h1v1.5h-1v-1.5z"></path>
</svg>
