<?xml version="1.0" encoding="UTF-8" standalone="no"?>
<!-- Accent from Roboto font family (Regular). Apache License, Version 2.0. -->

<svg
   version="1.1"
   viewBox="-20 0 1168 2048"
   id="svg1"
   sodipodi:docname="50.combining.svg"
   inkscape:version="1.3.2 (091e20ef0f, 2023-11-25)"
   xmlns:inkscape="http://www.inkscape.org/namespaces/inkscape"
   xmlns:sodipodi="http://sodipodi.sourceforge.net/DTD/sodipodi-0.dtd"
   xmlns="http://www.w3.org/2000/svg"
   xmlns:svg="http://www.w3.org/2000/svg">
  <defs
     id="defs1" />
  <sodipodi:namedview
     id="namedview1"
     pagecolor="#ffffff"
     bordercolor="#000000"
     borderopacity="0.25"
     inkscape:showpageshadow="2"
     inkscape:pageopacity="0.0"
     inkscape:pagecheckerboard="0"
     inkscape:deskcolor="#d1d1d1"
     inkscape:zoom="0.43103287"
     inkscape:cx="573.04214"
     inkscape:cy="259.84097"
     inkscape:window-width="2736"
     inkscape:window-height="1744"
     inkscape:window-x="0"
     inkscape:window-y="0"
     inkscape:window-maximized="1"
     inkscape:current-layer="g1" />
  <g
     transform="matrix(1 0 0 -1 0 1536)"
     id="g1">
    <path
       id="path1"
       d="M 650 1541 L 465 1275 L 613 1275 L 882 1535 L 880 1541 L 650 1541 z M 788.03711 1185.2168 L 788.03711 834.99219 L 884.67969 834.99219 L 884.67969 1185.2168 L 788.03711 1185.2168 z M 516.67773 1130.7461 C 398.97689 1122.8994 292.60787 1080.177 197.57227 1002.5801 L 194.95703 1005.1953 C 242.90998 956.37142 266.88672 931.52279 266.88672 930.65039 C 344.48318 990.80911 427.7482 1024.3767 516.67773 1031.3516 L 516.67773 1130.7461 z M 121.71875 938.49805 L 127.9043 933.55078 L 125.64258 935.88281 L 121.71875 938.49805 z M 127.9043 933.55078 L 128.2207 933.22461 C 128.2327 933.23861 128.24581 933.25358 128.25781 933.26758 L 127.9043 933.55078 z M 128.2207 933.22461 C 48.031653 841.68937 2.2696687 735.33339 -9.0625 614.16211 L 90.332031 614.16211 C 101.6658 709.19571 137.41295 791.15224 197.57227 860.0293 C 197.57227 860.90169 187.54483 871.80024 167.49219 892.72461 L 128.2207 933.22461 z M 788.03711 733.03516 L 788.03711 382.8125 L 884.67969 382.8125 L 884.67969 733.03516 L 788.03711 733.03516 z M -9.0605469 517.38281 C -0.34667559 391.03054 42.335595 282.09919 118.98047 190.58398 C 123.06104 195.44428 144.50061 217.66171 189.72656 263.66797 C 132.18314 335.1603 99.052766 419.73181 90.333984 517.38281 L -9.0605469 517.38281 z M 118.98047 190.58398 C 118.49847 190.00988 115.08964 186.50781 115.18164 186.50781 L 119.10352 190.43164 C 119.06152 190.48164 119.02242 190.53368 118.98047 190.58398 z M 788.03711 280.85547 L 788.03711 -69.369141 L 884.67969 -69.369141 L 884.67969 280.85547 L 788.03711 280.85547 z M 259.04102 190.43164 L 189.72656 121.11719 C 287.37616 38.28987 396.36145 -7.0487922 516.67969 -14.896484 L 516.67969 84.498047 C 423.38876 94.961136 337.50938 130.2728 259.04102 190.43164 z " />
  </g>
</svg>
