<?xml version="1.0" encoding="UTF-8" standalone="no"?>
<!-- Accent from Roboto font family (Regular). Apache License, Version 2.0. -->

<svg
   version="1.1"
   viewBox="-20 0 1168 2048"
   id="svg1"
   sodipodi:docname="51.combining.svg"
   inkscape:version="1.3.2 (091e20ef0f, 2023-11-25)"
   xmlns:inkscape="http://www.inkscape.org/namespaces/inkscape"
   xmlns:sodipodi="http://sodipodi.sourceforge.net/DTD/sodipodi-0.dtd"
   xmlns="http://www.w3.org/2000/svg"
   xmlns:svg="http://www.w3.org/2000/svg">
  <defs
     id="defs1" />
  <sodipodi:namedview
     id="namedview1"
     pagecolor="#ffffff"
     bordercolor="#000000"
     borderopacity="0.25"
     inkscape:showpageshadow="2"
     inkscape:pageopacity="0.0"
     inkscape:pagecheckerboard="0"
     inkscape:deskcolor="#d1d1d1"
     inkscape:zoom="0.32224737"
     inkscape:cx="1238.1792"
     inkscape:cy="301.01099"
     inkscape:window-width="2736"
     inkscape:window-height="1744"
     inkscape:window-x="0"
     inkscape:window-y="0"
     inkscape:window-maximized="1"
     inkscape:current-layer="svg1" />
  <g
     transform="matrix(1 0 0 -1 0 1536)"
     id="g1">
    <path
       id="path1"
       d="M 240 1543 L 240 1523 L 494 1280 L 613 1280 L 870 1525 L 870 1543 L 700 1543 L 553 1395 L 406 1543 L 240 1543 z M 788.03711 1185.4141 L 788.03711 835.18945 L 884.67969 835.18945 L 884.67969 1185.4141 L 788.03711 1185.4141 z M 516.67773 1130.9434 C 398.97689 1123.0967 292.60787 1080.3743 197.57227 1002.7773 L 194.95703 1005.3926 C 242.90998 956.56869 266.88672 931.72006 266.88672 930.84766 C 344.48318 991.00638 427.7482 1024.5739 516.67773 1031.5488 L 516.67773 1130.9434 z M 121.71875 938.69531 L 127.9043 933.74805 L 125.64258 936.08008 L 121.71875 938.69531 z M 127.9043 933.74805 L 128.2207 933.42188 C 128.2327 933.43587 128.24581 933.45084 128.25781 933.46484 L 127.9043 933.74805 z M 128.2207 933.42188 C 48.031653 841.88664 2.2696687 735.53065 -9.0625 614.35938 L 90.332031 614.35938 C 101.6658 709.39298 137.41295 791.3495 197.57227 860.22656 C 197.57227 861.09895 187.54483 871.99751 167.49219 892.92188 L 128.2207 933.42188 z M 788.03711 733.23242 L 788.03711 383.00977 L 884.67969 383.00977 L 884.67969 733.23242 L 788.03711 733.23242 z M -9.0605469 517.58008 C -0.34667559 391.2278 42.335595 282.29646 118.98047 190.78125 C 123.06104 195.64155 144.50061 217.85898 189.72656 263.86523 C 132.18314 335.35756 99.052766 419.92908 90.333984 517.58008 L -9.0605469 517.58008 z M 118.98047 190.78125 C 118.49847 190.20715 115.08964 186.70508 115.18164 186.70508 L 119.10352 190.62891 C 119.06152 190.67891 119.02242 190.73095 118.98047 190.78125 z M 788.03711 281.05273 L 788.03711 -69.171875 L 884.67969 -69.171875 L 884.67969 281.05273 L 788.03711 281.05273 z M 259.04102 190.62891 L 189.72656 121.31445 C 287.37616 38.487136 396.36145 -6.8515266 516.67969 -14.699219 L 516.67969 84.695312 C 423.38876 95.158402 337.50938 130.47007 259.04102 190.62891 z " />
  </g>
</svg>
