<?xml version="1.0" encoding="UTF-8" standalone="no"?>
<!-- Accent from Roboto font family (Regular). Apache License, Version 2.0. -->

<svg
   version="1.1"
   viewBox="-20 0 1168 2048"
   id="svg1"
   sodipodi:docname="52.combining.svg"
   inkscape:version="1.3.2 (091e20ef0f, 2023-11-25)"
   xmlns:inkscape="http://www.inkscape.org/namespaces/inkscape"
   xmlns:sodipodi="http://sodipodi.sourceforge.net/DTD/sodipodi-0.dtd"
   xmlns="http://www.w3.org/2000/svg"
   xmlns:svg="http://www.w3.org/2000/svg">
  <defs
     id="defs1" />
  <sodipodi:namedview
     id="namedview1"
     pagecolor="#ffffff"
     bordercolor="#000000"
     borderopacity="0.25"
     inkscape:showpageshadow="2"
     inkscape:pageopacity="0.0"
     inkscape:pagecheckerboard="0"
     inkscape:deskcolor="#d1d1d1"
     inkscape:zoom="0.28469254"
     inkscape:cx="1053.7684"
     inkscape:cy="540.93444"
     inkscape:window-width="2736"
     inkscape:window-height="1744"
     inkscape:window-x="0"
     inkscape:window-y="0"
     inkscape:window-maximized="1"
     inkscape:current-layer="svg1" />
  <g
     transform="matrix(1 0 0 -1 0 1536)"
     id="g1">
    <path
       id="path1"
       d="M 788.03711 1185.3613 L 788.03711 835.13672 L 884.67969 835.13672 L 884.67969 1185.3613 L 788.03711 1185.3613 z M 516.67773 1130.8906 C 398.97689 1123.0439 292.60787 1080.3215 197.57227 1002.7246 L 194.95703 1005.3398 C 242.90998 956.51595 266.88672 931.66732 266.88672 930.79492 C 344.48318 990.95364 427.7482 1024.5212 516.67773 1031.4961 L 516.67773 1130.8906 z M 121.71875 938.64258 L 127.9043 933.69531 L 125.64258 936.02734 L 121.71875 938.64258 z M 127.9043 933.69531 L 128.2207 933.36914 C 128.2327 933.38314 128.24581 933.39811 128.25781 933.41211 L 127.9043 933.69531 z M 128.2207 933.36914 C 48.031653 841.8339 2.2696687 735.47792 -9.0625 614.30664 L 90.332031 614.30664 C 101.6658 709.34025 137.41295 791.29677 197.57227 860.17383 C 197.57227 861.04622 187.54483 871.94477 167.49219 892.86914 L 128.2207 933.36914 z M 788.03711 733.17969 L 788.03711 382.95703 L 884.67969 382.95703 L 884.67969 733.17969 L 788.03711 733.17969 z M -9.0605469 517.52734 C -0.34667559 391.17507 42.335595 282.24372 118.98047 190.72852 C 123.06104 195.58881 144.50061 217.80625 189.72656 263.8125 C 132.18314 335.30483 99.052766 419.87634 90.333984 517.52734 L -9.0605469 517.52734 z M 118.98047 190.72852 C 118.49847 190.15442 115.08964 186.65234 115.18164 186.65234 L 119.10352 190.57617 C 119.06152 190.62617 119.02242 190.67822 118.98047 190.72852 z M 788.03711 281 L 788.03711 -69.224609 L 884.67969 -69.224609 L 884.67969 281 L 788.03711 281 z M 259.04102 190.57617 L 189.72656 121.26172 C 278.02009 46.370309 375.61486 2.2381133 482.44141 -11.353516 L 451 -144 C 508.99994 -148.66667 550.00002 -157.33334 574 -170 C 597.99998 -182.66666 610 -205.00003 610 -237 C 610 -269.66664 595.3333 -294.16669 566 -310.5 C 536.6667 -326.83331 497.99995 -335 450 -335 L 457 -444 C 554.9999 -444 630.33338 -424.99996 683 -387 C 735.66662 -349.00004 762 -297.99994 762 -234 C 762 -180.66672 747.66664 -140.3333 719 -113 C 690.33336 -85.666694 654.33329 -68.333326 611 -61 L 623 -9 L 516.67969 -9 L 516.67969 84.642578 C 423.38876 95.105668 337.50938 130.41733 259.04102 190.57617 z " />
  </g>
</svg>
