<?xml version="1.0" encoding="UTF-8" standalone="no"?>
<!-- Accent from Roboto font family (Regular). Apache License, Version 2.0. -->

<svg
   version="1.1"
   viewBox="-20 0 1168 2048"
   id="svg1"
   sodipodi:docname="53.combining.svg"
   inkscape:version="1.3.2 (091e20ef0f, 2023-11-25)"
   xmlns:inkscape="http://www.inkscape.org/namespaces/inkscape"
   xmlns:sodipodi="http://sodipodi.sourceforge.net/DTD/sodipodi-0.dtd"
   xmlns="http://www.w3.org/2000/svg"
   xmlns:svg="http://www.w3.org/2000/svg">
  <defs
     id="defs1" />
  <sodipodi:namedview
     id="namedview1"
     pagecolor="#ffffff"
     bordercolor="#000000"
     borderopacity="0.25"
     inkscape:showpageshadow="2"
     inkscape:pageopacity="0.0"
     inkscape:pagecheckerboard="0"
     inkscape:deskcolor="#d1d1d1"
     inkscape:zoom="0.43330418"
     inkscape:cx="964.68028"
     inkscape:cy="925.44687"
     inkscape:window-width="2736"
     inkscape:window-height="1744"
     inkscape:window-x="0"
     inkscape:window-y="0"
     inkscape:window-maximized="1"
     inkscape:current-layer="svg1" />
  <g
     transform="matrix(1 0 0 -1 0 1536)"
     id="g1">
    <path
       id="path1"
       d="M 495 1542 L 249 1305 L 249 1279 L 409 1279 L 555 1427 L 702 1279 L 863 1279 L 863 1304 L 615 1542 L 495 1542 z M 788.03711 1186.0098 L 788.03711 835.78516 L 884.67969 835.78516 L 884.67969 1186.0098 L 788.03711 1186.0098 z M 516.67773 1131.5391 C 398.97689 1123.6924 292.60787 1080.97 197.57227 1003.373 L 194.95703 1005.9883 C 242.90998 957.16439 266.88672 932.31576 266.88672 931.44336 C 344.48318 991.60208 427.7482 1025.1696 516.67773 1032.1445 L 516.67773 1131.5391 z M 121.71875 939.29102 L 127.9043 934.34375 L 125.64258 936.67578 L 121.71875 939.29102 z M 127.9043 934.34375 L 128.2207 934.01758 C 128.2327 934.03158 128.24581 934.04655 128.25781 934.06055 L 127.9043 934.34375 z M 128.2207 934.01758 C 48.031653 842.48234 2.2696687 736.12636 -9.0625 614.95508 L 90.332031 614.95508 C 101.6658 709.98868 137.41295 791.9452 197.57227 860.82227 C 197.57227 861.69465 187.54483 872.59321 167.49219 893.51758 L 128.2207 934.01758 z M 788.03711 733.82812 L 788.03711 383.60547 L 884.67969 383.60547 L 884.67969 733.82812 L 788.03711 733.82812 z M -9.0605469 518.17578 C -0.34667559 391.82351 42.335595 282.89216 118.98047 191.37695 C 123.06104 196.23725 144.50061 218.45468 189.72656 264.46094 C 132.18314 335.95327 99.052766 420.52478 90.333984 518.17578 L -9.0605469 518.17578 z M 118.98047 191.37695 C 118.49847 190.80285 115.08964 187.30078 115.18164 187.30078 L 119.10352 191.22461 C 119.06152 191.27461 119.02242 191.32665 118.98047 191.37695 z M 788.03711 281.64844 L 788.03711 -68.576172 L 884.67969 -68.576172 L 884.67969 281.64844 L 788.03711 281.64844 z M 259.04102 191.22461 L 189.72656 121.91016 C 287.37616 39.082839 396.36145 -6.2558235 516.67969 -14.103516 L 516.67969 85.291016 C 423.38876 95.754105 337.50938 131.06577 259.04102 191.22461 z " />
  </g>
</svg>
