<?xml version="1.0" encoding="UTF-8" standalone="no"?>
<!-- Accent from Roboto font family (Regular). Apache License, Version 2.0. -->

<svg
   version="1.1"
   viewBox="-20 0 1168 2048"
   id="svg1"
   sodipodi:docname="54.combined.svg"
   inkscape:version="1.3.2 (091e20ef0f, 2023-11-25)"
   xmlns:inkscape="http://www.inkscape.org/namespaces/inkscape"
   xmlns:sodipodi="http://sodipodi.sourceforge.net/DTD/sodipodi-0.dtd"
   xmlns="http://www.w3.org/2000/svg"
   xmlns:svg="http://www.w3.org/2000/svg">
  <defs
     id="defs1" />
  <sodipodi:namedview
     id="namedview1"
     pagecolor="#ffffff"
     bordercolor="#000000"
     borderopacity="0.25"
     inkscape:showpageshadow="2"
     inkscape:pageopacity="0.0"
     inkscape:pagecheckerboard="0"
     inkscape:deskcolor="#d1d1d1"
     inkscape:zoom="0.43113456"
     inkscape:cx="354.87761"
     inkscape:cy="635.53245"
     inkscape:window-width="2736"
     inkscape:window-height="1744"
     inkscape:window-x="0"
     inkscape:window-y="0"
     inkscape:window-maximized="1"
     inkscape:current-layer="svg1" />
  <g
     transform="matrix(1 0 0 -1 0 1536)"
     id="g1">
    <path
       id="path1"
       d="M 233 1545 L 230 1539 L 480 1279 L 638 1279 L 463 1545 L 233 1545 z M 788.03711 1185.8887 L 788.03711 835.66406 L 884.67969 835.66406 L 884.67969 1185.8887 L 788.03711 1185.8887 z M 516.67773 1131.418 C 398.97701 1123.5713 292.60777 1080.8489 197.57227 1003.252 L 194.95703 1005.8672 C 242.90993 957.04333 266.88672 932.19466 266.88672 931.32227 C 344.4831 991.48093 427.74829 1025.0485 516.67773 1032.0234 L 516.67773 1131.418 z M 121.71875 939.16992 L 127.9043 934.22266 L 125.64258 936.55469 L 121.71875 939.16992 z M 127.9043 934.22266 L 128.2207 933.89648 C 128.2327 933.91048 128.24581 933.92545 128.25781 933.93945 L 127.9043 934.22266 z M 128.2207 933.89648 C 48.031733 842.36134 2.2696587 736.00514 -9.0625 614.83398 L 90.332031 614.83398 C 101.66579 709.86749 137.41301 791.82417 197.57227 860.70117 C 197.57227 861.57355 187.54481 872.47214 167.49219 893.39648 L 128.2207 933.89648 z M 788.03711 733.70703 L 788.03711 383.48438 L 884.67969 383.48438 L 884.67969 733.70703 L 788.03711 733.70703 z M -9.0605469 518.05469 C -0.34668559 391.70251 42.335665 282.77107 118.98047 191.25586 C 123.06103 196.11615 144.50066 218.33369 189.72656 264.33984 C 132.1832 335.83217 99.052766 420.40379 90.333984 518.05469 L -9.0605469 518.05469 z M 118.98047 191.25586 C 118.49847 190.68176 115.08964 187.17969 115.18164 187.17969 L 119.10352 191.10352 C 119.06152 191.15352 119.02242 191.20556 118.98047 191.25586 z M 788.03711 281.52734 L 788.03711 -68.697266 L 884.67969 -68.697266 L 884.67969 281.52734 L 788.03711 281.52734 z M 259.04102 191.10352 L 189.72656 121.78906 C 287.37606 38.961745 396.36157 -6.3769172 516.67969 -14.224609 L 516.67969 85.169922 C 423.38885 95.633011 337.5093 130.94478 259.04102 191.10352 z " />
  </g>
</svg>
