<?xml version="1.0" encoding="UTF-8" standalone="no"?>
<!-- Accent from Roboto font family (Regular). Apache License, Version 2.0. -->

<svg
   version="1.1"
   viewBox="-20 0 1168 2048"
   id="svg1"
   sodipodi:docname="56.combining.svg"
   inkscape:version="1.3.2 (091e20ef0f, 2023-11-25)"
   xmlns:inkscape="http://www.inkscape.org/namespaces/inkscape"
   xmlns:sodipodi="http://sodipodi.sourceforge.net/DTD/sodipodi-0.dtd"
   xmlns="http://www.w3.org/2000/svg"
   xmlns:svg="http://www.w3.org/2000/svg">
  <defs
     id="defs1" />
  <sodipodi:namedview
     id="namedview1"
     pagecolor="#ffffff"
     bordercolor="#000000"
     borderopacity="0.25"
     inkscape:showpageshadow="2"
     inkscape:pageopacity="0.0"
     inkscape:pagecheckerboard="0"
     inkscape:deskcolor="#d1d1d1"
     inkscape:zoom="0.53396301"
     inkscape:cx="475.68839"
     inkscape:cy="1151.7652"
     inkscape:window-width="2736"
     inkscape:window-height="1744"
     inkscape:window-x="0"
     inkscape:window-y="0"
     inkscape:window-maximized="1"
     inkscape:current-layer="svg1" />
  <g
     transform="matrix(1 0 0 -1 0 1536)"
     id="g1">
    <path
       id="path1"
       d="M 554 1581 C 505.33338 1581 463.8333 1564.8333 429.5 1532.5 C 395.1667 1500.1667 378 1460 378 1412 C 378 1364 395.00003 1324.6667 429 1294 C 462.99997 1263.3333 504.66672 1248 554 1248 C 601.99995 1248 642.83336 1263.1667 676.5 1293.5 C 710.16664 1323.8333 727 1363.3333 727 1412 C 727 1460 710.16664 1500.1667 676.5 1532.5 C 642.83336 1564.8333 601.99995 1581 554 1581 z M 554 1489 C 573.99998 1489 591.16668 1481.5 605.5 1466.5 C 619.83332 1451.5 627 1433.3333 627 1412 C 627 1390.6667 619.83332 1373 605.5 1359 C 591.16668 1345 573.99998 1338 554 1338 C 533.33335 1338 515.49999 1345.1667 500.5 1359.5 C 485.50002 1373.8333 478 1391.3333 478 1412 C 478 1433.3333 485.33334 1451.5 500 1466.5 C 514.66666 1481.5 532.66669 1489 554 1489 z M 788.03711 1185.4902 L 788.03711 835.26562 L 884.67969 835.26562 L 884.67969 1185.4902 L 788.03711 1185.4902 z M 516.67773 1131.0195 C 398.97725 1123.1728 292.60757 1080.4502 197.57227 1002.8535 L 194.95703 1005.4688 C 242.90983 956.64502 266.88672 931.79622 266.88672 930.92383 C 344.48294 991.08237 427.74852 1024.6501 516.67773 1031.625 L 516.67773 1131.0195 z M 121.71875 938.77148 L 127.9043 933.82422 L 125.64258 936.15625 L 121.71875 938.77148 z M 127.9043 933.82422 L 128.2207 933.49805 C 128.2327 933.51205 128.24581 933.52702 128.25781 933.54102 L 127.9043 933.82422 z M 128.2207 933.49805 C 48.031893 841.96309 2.2696387 735.60645 -9.0625 614.43555 L 90.332031 614.43555 C 101.66577 709.4689 137.41313 791.42587 197.57227 860.30273 C 197.57227 861.17511 187.54477 872.07375 167.49219 892.99805 L 128.2207 933.49805 z M 788.03711 733.30859 L 788.03711 383.08594 L 884.67969 383.08594 L 884.67969 733.30859 L 788.03711 733.30859 z M -9.0605469 517.65625 C -0.34670559 391.30438 42.335805 282.37243 118.98047 190.85742 C 123.06101 195.71762 144.50076 217.93535 189.72656 263.94141 C 132.18332 335.43363 99.052766 420.00555 90.333984 517.65625 L -9.0605469 517.65625 z M 118.98047 190.85742 C 118.49847 190.28332 115.08964 186.78125 115.18164 186.78125 L 119.10352 190.70508 C 119.06152 190.75508 119.02242 190.80712 118.98047 190.85742 z M 788.03711 281.12891 L 788.03711 -69.095703 L 884.67969 -69.095703 L 884.67969 281.12891 L 788.03711 281.12891 z M 259.04102 190.70508 L 189.72656 121.39062 C 287.37586 38.563408 396.36181 -6.7753547 516.67969 -14.623047 L 516.67969 84.771484 C 423.38898 95.234574 337.50914 130.54644 259.04102 190.70508 z " />
  </g>
</svg>
