<?xml version="1.0" encoding="UTF-8" standalone="no"?>
<!-- Accent from Roboto font family (Regular). Apache License, Version 2.0. -->

<svg
   version="1.1"
   viewBox="-20 0 1168 2048"
   id="svg1"
   sodipodi:docname="57.combining.svg"
   inkscape:version="1.3.2 (091e20ef0f, 2023-11-25)"
   xmlns:inkscape="http://www.inkscape.org/namespaces/inkscape"
   xmlns:sodipodi="http://sodipodi.sourceforge.net/DTD/sodipodi-0.dtd"
   xmlns="http://www.w3.org/2000/svg"
   xmlns:svg="http://www.w3.org/2000/svg">
  <defs
     id="defs1" />
  <sodipodi:namedview
     id="namedview1"
     pagecolor="#ffffff"
     bordercolor="#000000"
     borderopacity="0.25"
     inkscape:showpageshadow="2"
     inkscape:pageopacity="0.0"
     inkscape:pagecheckerboard="0"
     inkscape:deskcolor="#d1d1d1"
     inkscape:zoom="0.39618502"
     inkscape:cx="355.89432"
     inkscape:cy="224.64252"
     inkscape:window-width="2736"
     inkscape:window-height="1744"
     inkscape:window-x="0"
     inkscape:window-y="0"
     inkscape:window-maximized="1"
     inkscape:current-layer="svg1" />
  <g
     transform="matrix(1 0 0 -1 0 1536)"
     id="g1">
    <path
       id="path1"
       d="M 794 1554 C 794 1522.6667 783.99998 1496.1667 764 1474.5 C 744.00002 1452.8333 720.3333 1442 693 1442 C 658.33336 1442 612.99994 1457.6667 557 1489 C 501.00006 1520.3333 454.33329 1536 417 1536 C 356.33339 1536 306.33329 1513.1667 267 1467.5 C 227.66671 1421.8333 208 1367.9999 208 1306 L 316 1280 C 316 1310.6667 325.66669 1336.8333 345 1358.5 C 364.33331 1380.1667 388.33336 1391 417 1391 C 450.99997 1391 493.66672 1375.5 545 1344.5 C 596.33328 1313.5 645.66672 1298 693 1298 C 752.99994 1298 802.83337 1319.6667 842.5 1363 C 882.16663 1406.3333 902 1459.3334 902 1522 L 794 1554 z M 788.03711 1185.2617 L 788.03711 835.03711 L 884.67969 835.03711 L 884.67969 1185.2617 L 788.03711 1185.2617 z M 516.67773 1130.791 C 398.97725 1122.9443 292.60757 1080.2217 197.57227 1002.625 L 194.95703 1005.2402 C 242.90983 956.4165 266.88672 931.5677 266.88672 930.69531 C 344.48294 990.85385 427.74847 1024.4216 516.67773 1031.3965 L 516.67773 1130.791 z M 121.71875 938.54297 L 127.9043 933.5957 L 125.64258 935.92773 L 121.71875 938.54297 z M 127.9043 933.5957 L 128.2207 933.26953 C 128.2327 933.28353 128.24581 933.2985 128.25781 933.3125 L 127.9043 933.5957 z M 128.2207 933.26953 C 48.031893 841.73457 2.2696387 735.37793 -9.0625 614.20703 L 90.332031 614.20703 C 101.66577 709.24044 137.41313 791.19736 197.57227 860.07422 C 197.57227 860.9466 187.54477 871.84523 167.49219 892.76953 L 128.2207 933.26953 z M 788.03711 733.08008 L 788.03711 382.85742 L 884.67969 382.85742 L 884.67969 733.08008 L 788.03711 733.08008 z M -9.0605469 517.42773 C -0.34670859 391.07586 42.335805 282.14391 118.98047 190.62891 C 123.06101 195.4891 144.50076 217.70684 189.72656 263.71289 C 132.18332 335.20512 99.052766 419.77703 90.333984 517.42773 L -9.0605469 517.42773 z M 118.98047 190.62891 C 118.49847 190.05481 115.08964 186.55273 115.18164 186.55273 L 119.10352 190.47656 C 119.06152 190.52656 119.02242 190.57861 118.98047 190.62891 z M 788.03711 280.90039 L 788.03711 -69.324219 L 884.67969 -69.324219 L 884.67969 280.90039 L 788.03711 280.90039 z M 259.04102 190.47656 L 189.72656 121.16211 C 287.37586 38.334892 396.36181 -7.0038703 516.67969 -14.851562 L 516.67969 84.542969 C 423.38903 95.006058 337.50914 130.31792 259.04102 190.47656 z " />
  </g>
</svg>
