<?xml version="1.0" encoding="UTF-8" standalone="no"?>
<!-- Accent from Roboto font family (Regular). Apache License, Version 2.0. -->

<svg
   version="1.1"
   viewBox="-20 0 1168 2048"
   id="svg1"
   sodipodi:docname="58.combining.svg"
   inkscape:version="1.3.2 (091e20ef0f, 2023-11-25)"
   xmlns:inkscape="http://www.inkscape.org/namespaces/inkscape"
   xmlns:sodipodi="http://sodipodi.sourceforge.net/DTD/sodipodi-0.dtd"
   xmlns="http://www.w3.org/2000/svg"
   xmlns:svg="http://www.w3.org/2000/svg">
  <defs
     id="defs1" />
  <sodipodi:namedview
     id="namedview1"
     pagecolor="#ffffff"
     bordercolor="#000000"
     borderopacity="0.25"
     inkscape:showpageshadow="2"
     inkscape:pageopacity="0.0"
     inkscape:pagecheckerboard="0"
     inkscape:deskcolor="#d1d1d1"
     inkscape:zoom="0.45672531"
     inkscape:cx="477.31097"
     inkscape:cy="821.06244"
     inkscape:window-width="2736"
     inkscape:window-height="1744"
     inkscape:window-x="0"
     inkscape:window-y="0"
     inkscape:window-maximized="1"
     inkscape:current-layer="svg1" />
  <g
     transform="matrix(1 0 0 -1 0 1536)"
     id="g1">
    <path
       id="path1"
       d="M 211 1483 L 211 1283 L 430 1283 L 430 1483 L 211 1483 z M 681 1483 L 681 1283 L 900 1283 L 900 1483 L 681 1483 z M 788.03711 1185.3984 L 788.03711 835.17383 L 884.67969 835.17383 L 884.67969 1185.3984 L 788.03711 1185.3984 z M 516.67773 1130.9277 C 398.97725 1123.081 292.60757 1080.3584 197.57227 1002.7617 L 194.95703 1005.377 C 242.90983 956.55322 266.88672 931.70442 266.88672 930.83203 C 344.48294 990.99057 427.74847 1024.5583 516.67773 1031.5332 L 516.67773 1130.9277 z M 121.71875 938.67969 L 127.9043 933.73242 L 125.64258 936.06445 L 121.71875 938.67969 z M 127.9043 933.73242 L 128.2207 933.40625 C 128.2327 933.42025 128.24581 933.43522 128.25781 933.44922 L 127.9043 933.73242 z M 128.2207 933.40625 C 48.031893 841.87129 2.2696387 735.51465 -9.0625 614.34375 L 90.332031 614.34375 C 101.66577 709.37715 137.41313 791.33408 197.57227 860.21094 C 197.57227 861.08332 187.54477 871.98195 167.49219 892.90625 L 128.2207 933.40625 z M 788.03711 733.2168 L 788.03711 382.99414 L 884.67969 382.99414 L 884.67969 733.2168 L 788.03711 733.2168 z M -9.0605469 517.56445 C -0.34670859 391.21258 42.335805 282.28063 118.98047 190.76562 C 123.06101 195.62582 144.50076 217.84356 189.72656 263.84961 C 132.18332 335.34184 99.052766 419.91375 90.333984 517.56445 L -9.0605469 517.56445 z M 118.98047 190.76562 C 118.49847 190.19153 115.08964 186.68945 115.18164 186.68945 L 119.10352 190.61328 C 119.06152 190.66328 119.02242 190.71533 118.98047 190.76562 z M 788.03711 281.03711 L 788.03711 -69.1875 L 884.67969 -69.1875 L 884.67969 281.03711 L 788.03711 281.03711 z M 259.04102 190.61328 L 189.72656 121.29883 C 287.37586 38.471611 396.36181 -6.8671516 516.67969 -14.714844 L 516.67969 84.679688 C 423.38903 95.142777 337.50914 130.45464 259.04102 190.61328 z " />
  </g>
</svg>
