<?xml version="1.0" encoding="UTF-8" standalone="no"?>
<svg
   version="1.1"
   viewBox="-20 0 1168 2048"
   id="svg1"
   sodipodi:docname="59.combining.svg"
   inkscape:version="1.3.2 (091e20ef0f, 2023-11-25)"
   xmlns:inkscape="http://www.inkscape.org/namespaces/inkscape"
   xmlns:sodipodi="http://sodipodi.sourceforge.net/DTD/sodipodi-0.dtd"
   xmlns="http://www.w3.org/2000/svg"
   xmlns:svg="http://www.w3.org/2000/svg">
  <defs
     id="defs1" />
  <sodipodi:namedview
     id="namedview1"
     pagecolor="#ffffff"
     bordercolor="#000000"
     borderopacity="0.25"
     inkscape:showpageshadow="2"
     inkscape:pageopacity="0.0"
     inkscape:pagecheckerboard="0"
     inkscape:deskcolor="#d1d1d1"
     inkscape:zoom="0.46013612"
     inkscape:cx="608.51559"
     inkscape:cy="660.67407"
     inkscape:window-width="2736"
     inkscape:window-height="1744"
     inkscape:window-x="0"
     inkscape:window-y="0"
     inkscape:window-maximized="1"
     inkscape:current-layer="svg1" />
  <g
     transform="matrix(1 0 0 -1 0 1536)"
     id="g1">
    <path
       id="path1"
       d="M 788.03711 1185.4375 L 788.03711 835.21289 L 884.67969 835.21289 L 884.67969 1185.4375 L 788.03711 1185.4375 z M 516.67773 1130.9668 C 398.97725 1123.1201 292.60757 1080.3975 197.57227 1002.8008 L 194.95703 1005.416 C 242.90983 956.59228 266.88672 931.74348 266.88672 930.87109 C 344.48294 991.02963 427.74847 1024.5974 516.67773 1031.5723 L 516.67773 1130.9668 z M 121.71875 938.71875 L 127.9043 933.77148 L 125.64258 936.10352 L 121.71875 938.71875 z M 127.9043 933.77148 L 128.2207 933.44531 C 128.2327 933.45931 128.24581 933.47428 128.25781 933.48828 L 127.9043 933.77148 z M 128.2207 933.44531 C 48.031893 841.91036 2.2696387 735.55369 -9.0625 614.38281 L 90.332031 614.38281 C 101.66577 709.41622 137.41313 791.37317 197.57227 860.25 C 197.57227 861.1224 187.54477 872.02103 167.49219 892.94531 L 128.2207 933.44531 z M 788.03711 733.25586 L 788.03711 383.0332 L 884.67969 383.0332 L 884.67969 733.25586 L 788.03711 733.25586 z M -9.0605469 517.60352 C -0.34670859 391.25164 42.335805 282.3197 118.98047 190.80469 C 123.06101 195.66488 144.50076 217.88262 189.72656 263.88867 C 132.18332 335.3809 99.052766 419.95281 90.333984 517.60352 L -9.0605469 517.60352 z M 118.98047 190.80469 C 118.49847 190.23059 115.08964 186.72852 115.18164 186.72852 L 119.10352 190.65234 C 119.06152 190.70234 119.02242 190.75439 118.98047 190.80469 z M 788.03711 281.07617 L 788.03711 -14.900391 C 764.18598 -32.716589 743.96402 -51.406452 727.5 -71 C 687.16671 -118.99995 667 -169.66672 667 -223 C 667 -288.99993 687.16671 -340.33337 727.5 -377 C 767.83329 -413.66663 819.66673 -432 883 -432 C 922.99996 -432 957.50003 -427.83332 986.5 -419.5 C 1015.5 -411.16668 1042 -400.66666 1066 -388 L 1033 -265 C 1015.6667 -272.33332 999.33331 -278.50001 984 -283.5 C 968.66669 -288.49999 951.99998 -291 934 -291 C 900.00003 -291 875.49999 -282.99998 860.5 -267 C 845.50001 -251.00002 838 -228.99997 838 -201 C 838 -165.00004 851.1667 -131.16664 877.5 -99.5 C 903.8333 -67.833365 940.33338 -34.666632 987 0 L 915 57 C 904.55355 52.39369 894.45123 47.70424 884.67969 42.935547 L 884.67969 281.07617 L 788.03711 281.07617 z M 259.04102 190.65234 L 189.72656 121.33789 C 287.37586 38.510673 396.36181 -6.8280891 516.67969 -14.675781 L 516.67969 84.71875 C 423.38903 95.18184 337.50914 130.4937 259.04102 190.65234 z " />
  </g>
</svg>
