<?xml version="1.0" encoding="UTF-8" standalone="no"?>
<svg
   version="1.1"
   viewBox="-20 0 1168 2048"
   id="svg1"
   sodipodi:docname="5A.combining.svg"
   inkscape:version="1.3.2 (091e20ef0f, 2023-11-25)"
   xmlns:inkscape="http://www.inkscape.org/namespaces/inkscape"
   xmlns:sodipodi="http://sodipodi.sourceforge.net/DTD/sodipodi-0.dtd"
   xmlns="http://www.w3.org/2000/svg"
   xmlns:svg="http://www.w3.org/2000/svg">
  <defs
     id="defs1" />
  <sodipodi:namedview
     id="namedview1"
     pagecolor="#ffffff"
     bordercolor="#000000"
     borderopacity="0.25"
     inkscape:showpageshadow="2"
     inkscape:pageopacity="0.0"
     inkscape:pagecheckerboard="0"
     inkscape:deskcolor="#d1d1d1"
     showgrid="false"
     inkscape:zoom="0.37732464"
     inkscape:cx="-129.86165"
     inkscape:cy="667.85991"
     inkscape:window-width="2736"
     inkscape:window-height="1744"
     inkscape:window-x="0"
     inkscape:window-y="0"
     inkscape:window-maximized="1"
     inkscape:current-layer="g1" />
  <g
     transform="matrix(1 0 0 -1 0 1536)"
     id="g1">
    <path
       id="path1"
       d="M 430 1484 L 430 1283 L 648 1283 L 648 1484 L 430 1484 z M 788.03711 1185.416 L 788.03711 835.19141 L 884.67969 835.19141 L 884.67969 1185.416 L 788.03711 1185.416 z M 516.67773 1130.9453 C 398.97652 1123.0986 292.60817 1080.3765 197.57227 1002.7793 L 194.95703 1005.3945 C 242.91011 956.57037 266.88672 931.722 266.88672 930.84961 C 344.48341 991.00851 427.74788 1024.5759 516.67773 1031.5508 L 516.67773 1130.9453 z M 121.71875 938.69727 L 127.9043 933.75 L 125.64258 936.08203 L 121.71875 938.69727 z M 127.9043 933.75 L 128.2207 933.42383 C 128.23324 933.43814 128.24527 933.45248 128.25781 933.4668 L 127.9043 933.75 z M 128.2207 933.42383 C 48.031429 841.88827 2.2697163 735.53293 -9.0625 614.36133 L 90.332031 614.36133 C 101.66582 709.39523 137.4128 791.35125 197.57227 860.22852 C 197.57227 861.10091 187.5449 871.99938 167.49219 892.92383 L 128.2207 933.42383 z M 788.03711 733.23438 L 788.03711 383.01172 L 884.67969 383.01172 L 884.67969 733.23438 L 788.03711 733.23438 z M -9.0605469 517.58203 C -0.34660748 391.22954 42.335356 282.29867 118.98047 190.7832 C 123.06106 195.64351 144.50052 217.86093 189.72656 263.86719 C 132.18302 335.35979 99.052776 419.9308 90.333984 517.58203 L -9.0605469 517.58203 z M 118.98047 190.7832 C 118.49846 190.20909 115.08955 186.70703 115.18164 186.70703 L 119.10352 190.63086 C 119.06141 190.6811 119.02256 190.73295 118.98047 190.7832 z M 788.03711 281.05469 L 788.03711 -69.169922 L 884.67969 -69.169922 L 884.67969 281.05469 L 788.03711 281.05469 z M 259.04102 190.63086 L 189.72656 121.31641 C 287.37646 38.488822 396.36114 -6.8496068 516.67969 -14.697266 L 516.67969 84.697266 C 423.38845 95.160388 337.50961 130.47205 259.04102 190.63086 z " />
  </g>
</svg>
