<?xml version="1.0" encoding="UTF-8" standalone="no"?>
<svg
   version="1.1"
   viewBox="-20 0 1184 2048"
   id="svg1"
   sodipodi:docname="5B.combining.svg"
   inkscape:version="1.3.2 (091e20ef0f, 2023-11-25)"
   xmlns:inkscape="http://www.inkscape.org/namespaces/inkscape"
   xmlns:sodipodi="http://sodipodi.sourceforge.net/DTD/sodipodi-0.dtd"
   xmlns="http://www.w3.org/2000/svg"
   xmlns:svg="http://www.w3.org/2000/svg">
  <defs
     id="defs1" />
  <sodipodi:namedview
     id="namedview1"
     pagecolor="#ffffff"
     bordercolor="#000000"
     borderopacity="0.25"
     inkscape:showpageshadow="2"
     inkscape:pageopacity="0.0"
     inkscape:pagecheckerboard="0"
     inkscape:deskcolor="#d1d1d1"
     inkscape:zoom="0.58198807"
     inkscape:cx="-51.547448"
     inkscape:cy="554.99419"
     inkscape:window-width="2736"
     inkscape:window-height="1744"
     inkscape:window-x="0"
     inkscape:window-y="0"
     inkscape:window-maximized="1"
     inkscape:current-layer="g1" />
  <g
     transform="matrix(1 0 0 -1 0 1536)"
     id="g1">
    <path
       id="path1"
       d="M 530 1545 L 346 1279 L 503 1279 L 743 1540 L 741 1545 L 530 1545 z M 856 1545 L 615 1284 L 617 1279 L 788 1279 L 1088 1539 L 1085 1545 L 856 1545 z M 788.03711 1185.6328 L 788.03711 835.4082 L 884.67969 835.4082 L 884.67969 1185.6328 L 788.03711 1185.6328 z M 516.67773 1131.1621 C 398.97665 1123.3154 292.60807 1080.5932 197.57227 1002.9961 L 194.95703 1005.6113 C 242.91008 956.78728 266.88672 931.93881 266.88672 931.06641 C 344.48334 991.22525 427.74802 1024.7927 516.67773 1031.7676 L 516.67773 1131.1621 z M 121.71875 938.91406 L 127.9043 933.9668 L 125.64258 936.29883 L 121.71875 938.91406 z M 127.9043 933.9668 L 128.2207 933.64062 C 128.2327 933.65462 128.24581 933.66959 128.25781 933.68359 L 127.9043 933.9668 z M 128.2207 933.64062 C 48.031483 842.10519 2.2696887 735.7496 -9.0625 614.57812 L 90.332031 614.57812 C 101.66582 709.61193 137.41283 791.56811 197.57227 860.44531 C 197.57227 861.3177 187.54487 872.2162 167.49219 893.14062 L 128.2207 933.64062 z M 788.03711 733.45117 L 788.03711 383.22852 L 884.67969 383.22852 L 884.67969 733.45117 L 788.03711 733.45117 z M -9.0605469 517.79883 C -0.34665559 391.44635 42.335445 282.51541 118.98047 191 C 123.06106 195.8603 144.50051 218.07773 189.72656 264.08398 C 132.18302 335.57651 99.052776 420.14763 90.333984 517.79883 L -9.0605469 517.79883 z M 118.98047 191 C 118.49847 190.4259 115.08964 186.92383 115.18164 186.92383 L 119.10352 190.84766 C 119.06152 190.89766 119.02247 190.9497 118.98047 191 z M 788.03711 281.27148 L 788.03711 -68.953125 L 884.67969 -68.953125 L 884.67969 281.27148 L 788.03711 281.27148 z M 259.04102 190.84766 L 189.72656 121.5332 C 287.37636 38.705686 396.36121 -6.6327766 516.67969 -14.480469 L 516.67969 84.914062 C 423.38858 95.377152 337.50954 130.68882 259.04102 190.84766 z " />
  </g>
</svg>
