<?xml version="1.0" encoding="UTF-8" standalone="no"?>
<svg
   version="1.1"
   viewBox="-20 0 2068 2048"
   id="svg1"
   sodipodi:docname="5C.combining.svg"
   inkscape:version="1.3.2 (091e20ef0f, 2023-11-25)"
   xmlns:inkscape="http://www.inkscape.org/namespaces/inkscape"
   xmlns:sodipodi="http://sodipodi.sourceforge.net/DTD/sodipodi-0.dtd"
   xmlns="http://www.w3.org/2000/svg"
   xmlns:svg="http://www.w3.org/2000/svg">
  <defs
     id="defs1" />
  <sodipodi:namedview
     id="namedview1"
     pagecolor="#ffffff"
     bordercolor="#000000"
     borderopacity="0.25"
     inkscape:showpageshadow="2"
     inkscape:pageopacity="0.0"
     inkscape:pagecheckerboard="0"
     inkscape:deskcolor="#d1d1d1"
     inkscape:zoom="0.35727934"
     inkscape:cx="487.01389"
     inkscape:cy="1116.7732"
     inkscape:window-width="2736"
     inkscape:window-height="1744"
     inkscape:window-x="0"
     inkscape:window-y="0"
     inkscape:window-maximized="1"
     inkscape:current-layer="svg1" />
  <path
     id="path1"
     d="M 859 327 L 847.23828 350.84375 L 788.03711 350.84375 L 788.03711 470.84766 L 332.91602 1393.4121 C 307.63186 1379.6959 282.94923 1363.9585 259.04102 1345.6289 L 189.72656 1414.9434 C 221.4138 1441.8208 254.31629 1464.6838 288.39062 1483.666 L 195.91211 1671.127 L 325 1671 L 395.0625 1528.9902 C 434.23639 1540.8294 474.75335 1548.2224 516.67969 1550.957 L 516.67969 1451.5625 C 490.70085 1448.6488 465.35862 1443.6034 440.5293 1436.8359 L 803.53125 701.06836 L 884.67969 701.06836 L 884.67969 536.58789 L 988.02539 327.11719 L 859 327 z M 516.67773 405.31445 C 398.97685 413.16115 292.60797 455.88345 197.57227 533.48047 L 194.95703 530.86523 C 242.91008 579.68919 266.88672 604.53776 266.88672 605.41016 C 344.48324 545.25142 427.74812 511.68388 516.67773 504.70898 L 516.67773 405.31445 z M 121.71875 597.5625 L 127.9043 602.50977 L 125.64258 600.17773 L 121.71875 597.5625 z M 127.9043 602.50977 L 128.2207 602.83594 C 128.2327 602.82194 128.24581 602.80697 128.25781 602.79297 L 127.9043 602.50977 z M 128.2207 602.83594 C 48.031583 694.37125 2.2696887 800.72706 -9.0625 921.89844 L 90.332031 921.89844 C 101.66582 826.86473 137.41283 744.90838 197.57227 676.03125 C 197.57227 675.15885 187.54487 664.26032 167.49219 643.33594 L 128.2207 602.83594 z M 788.03711 803.02539 L 788.03711 1153.248 L 884.67969 1153.248 L 884.67969 803.02539 L 788.03711 803.02539 z M -9.0605469 1018.6777 C -0.34675559 1145.0301 42.335445 1253.9613 118.98047 1345.4766 C 123.06106 1340.6163 144.50051 1318.3988 189.72656 1272.3926 C 132.18302 1200.9001 99.052776 1116.3288 90.333984 1018.6777 L -9.0605469 1018.6777 z M 118.98047 1345.4766 C 118.49847 1346.0507 115.08964 1349.5527 115.18164 1349.5527 L 119.10352 1345.6289 C 119.06152 1345.5789 119.02247 1345.5269 118.98047 1345.4766 z M 788.03711 1255.2051 L 788.03711 1605.4297 L 884.67969 1605.4297 L 884.67969 1255.2051 L 788.03711 1255.2051 z " />
</svg>
