<?xml version="1.0" encoding="UTF-8" standalone="no"?>
<svg
   version="1.1"
   viewBox="-20 0 2068 2048"
   id="svg1"
   sodipodi:docname="5D.combining.svg"
   inkscape:version="1.3.2 (091e20ef0f, 2023-11-25)"
   xmlns:inkscape="http://www.inkscape.org/namespaces/inkscape"
   xmlns:sodipodi="http://sodipodi.sourceforge.net/DTD/sodipodi-0.dtd"
   xmlns="http://www.w3.org/2000/svg"
   xmlns:svg="http://www.w3.org/2000/svg">
  <defs
     id="defs1" />
  <sodipodi:namedview
     id="namedview1"
     pagecolor="#ffffff"
     bordercolor="#000000"
     borderopacity="0.25"
     inkscape:showpageshadow="2"
     inkscape:pageopacity="0.0"
     inkscape:pagecheckerboard="0"
     inkscape:deskcolor="#d1d1d1"
     inkscape:zoom="0.62756232"
     inkscape:cx="627.8261"
     inkscape:cy="640.57383"
     inkscape:window-width="2736"
     inkscape:window-height="1744"
     inkscape:window-x="0"
     inkscape:window-y="0"
     inkscape:window-maximized="1"
     inkscape:current-layer="svg1" />
  <path
     id="path1"
     d="M 648.50391 102.80469 C 665.95442 139.28078 695.10226 173.54949 735.94922 205.61133 L 197.83203 205.61133 L 197.83203 242.91797 L 735.94922 242.91797 C 695.29759 275.16974 666.14976 309.56907 648.50391 346.11523 L 687.38281 346.11523 C 737.74609 294.33536 807.73007 256.89125 897.33398 233.7832 L 897.33398 215.13672 C 807.59067 192.08467 737.60669 154.64057 687.38281 102.80469 L 648.50391 102.80469 z M 788.03711 350.66797 L 788.03711 700.89258 L 884.67969 700.89258 L 884.67969 350.66797 L 788.03711 350.66797 z M 516.67773 405.13867 C 398.97677 412.98536 292.60797 455.70767 197.57227 533.30469 L 194.95703 530.68945 C 242.91003 579.51342 266.88672 604.36198 266.88672 605.23438 C 344.48326 545.0756 427.74811 511.5081 516.67773 504.5332 L 516.67773 405.13867 z M 121.71875 597.38672 L 127.9043 602.33398 L 125.64258 600.00195 L 121.71875 597.38672 z M 127.9043 602.33398 L 128.2207 602.66016 C 128.2327 602.64616 128.24581 602.63119 128.25781 602.61719 L 127.9043 602.33398 z M 128.2207 602.66016 C 48.031563 694.19549 2.2696777 800.5513 -9.0625 921.72266 L 90.332031 921.72266 C 101.66581 826.68894 137.41289 744.7326 197.57227 675.85547 C 197.57227 674.98308 187.54485 664.08456 167.49219 643.16016 L 128.2207 602.66016 z M 788.03711 802.84961 L 788.03711 1153.0723 L 884.67969 1153.0723 L 884.67969 802.84961 L 788.03711 802.84961 z M -9.0605469 1018.502 C -0.34666459 1144.8543 42.335515 1253.7855 118.98047 1345.3008 C 123.06105 1340.4405 144.50056 1318.2231 189.72656 1272.2168 C 132.18308 1200.7244 99.052776 1116.1531 90.333984 1018.502 L -9.0605469 1018.502 z M 118.98047 1345.3008 C 118.49847 1345.8749 115.08964 1349.377 115.18164 1349.377 L 119.10352 1345.4531 C 119.06152 1345.4031 119.02242 1345.3511 118.98047 1345.3008 z M 788.03711 1255.0293 L 788.03711 1605.2539 L 884.67969 1605.2539 L 884.67969 1255.0293 L 788.03711 1255.0293 z M 259.04102 1345.4531 L 189.72656 1414.7676 C 287.37626 1497.595 396.36133 1542.9336 516.67969 1550.7812 L 516.67969 1451.3867 C 423.38867 1440.9236 337.50946 1405.612 259.04102 1345.4531 z " />
</svg>
