<?xml version="1.0" encoding="UTF-8" standalone="no"?>
<svg
   version="1.1"
   viewBox="-20 0 1168 2048"
   id="svg1"
   sodipodi:docname="5E.combining.svg"
   inkscape:version="1.3.2 (091e20ef0f, 2023-11-25)"
   xmlns:inkscape="http://www.inkscape.org/namespaces/inkscape"
   xmlns:sodipodi="http://sodipodi.sourceforge.net/DTD/sodipodi-0.dtd"
   xmlns="http://www.w3.org/2000/svg"
   xmlns:svg="http://www.w3.org/2000/svg">
  <defs
     id="defs1" />
  <sodipodi:namedview
     id="namedview1"
     pagecolor="#ffffff"
     bordercolor="#000000"
     borderopacity="0.25"
     inkscape:showpageshadow="2"
     inkscape:pageopacity="0.0"
     inkscape:pagecheckerboard="0"
     inkscape:deskcolor="#d1d1d1"
     inkscape:zoom="0.40851537"
     inkscape:cx="851.86512"
     inkscape:cy="670.72139"
     inkscape:window-width="2736"
     inkscape:window-height="1744"
     inkscape:window-x="0"
     inkscape:window-y="0"
     inkscape:window-maximized="1"
     inkscape:current-layer="svg1" />
  <g
     transform="matrix(1 0 0 -1 0 1536)"
     id="g1">
    <path
       id="path1"
       d="M 282 1496 C 282 1416.0001 309.66673 1351.3333 365 1302 C 420.33327 1252.6667 492.66676 1228 582 1228 C 671.33324 1228 743.50005 1252.5 798.5 1301.5 C 853.49995 1350.5 881 1415.3334 881 1496 L 731 1496 C 731 1448.6667 717.8333 1412 691.5 1386 C 665.1667 1360 628.66662 1347 582 1347 C 533.33338 1347 496.3333 1360.1667 471 1386.5 C 445.6667 1412.8333 433 1449.3333 433 1496 L 282 1496 z M 788.03711 1185.3828 L 788.03711 835.1582 L 884.67969 835.1582 L 884.67969 1185.3828 L 788.03711 1185.3828 z M 516.67773 1130.9121 C 398.97677 1123.0654 292.60797 1080.3431 197.57227 1002.7461 L 194.95703 1005.3613 C 242.91003 956.53736 266.88672 931.68881 266.88672 930.81641 C 344.48326 990.97519 427.74811 1024.5427 516.67773 1031.5176 L 516.67773 1130.9121 z M 121.71875 938.66406 L 127.9043 933.7168 L 125.64258 936.04883 L 121.71875 938.66406 z M 127.9043 933.7168 L 128.2207 933.39062 C 128.2327 933.40462 128.24581 933.41959 128.25781 933.43359 L 127.9043 933.7168 z M 128.2207 933.39062 C 48.031566 841.85529 2.2696787 735.49948 -9.0625 614.32812 L 90.332031 614.32812 C 101.66581 709.36184 137.41289 791.31818 197.57227 860.19531 C 197.57227 861.0677 187.54485 871.96623 167.49219 892.89062 L 128.2207 933.39062 z M 788.03711 733.20117 L 788.03711 382.97852 L 884.67969 382.97852 L 884.67969 733.20117 L 788.03711 733.20117 z M -9.0605469 517.54883 C -0.34666559 391.19645 42.33552 282.26531 118.98047 190.75 C 123.06105 195.6103 144.50056 217.82773 189.72656 263.83398 C 132.18308 335.32641 99.052768 419.89773 90.333984 517.54883 L -9.0605469 517.54883 z M 118.98047 190.75 C 118.49847 190.1759 115.08964 186.67383 115.18164 186.67383 L 119.10352 190.59766 C 119.06152 190.64766 119.02242 190.6997 118.98047 190.75 z M 788.03711 281.02148 L 788.03711 -69.203125 L 884.67969 -69.203125 L 884.67969 281.02148 L 788.03711 281.02148 z M 259.04102 190.59766 L 189.72656 121.2832 C 287.37626 38.455786 396.36133 -6.8827766 516.67969 -14.730469 L 516.67969 84.664062 C 423.38867 95.127152 337.50946 130.43882 259.04102 190.59766 z " />
  </g>
</svg>
