<?xml version="1.0" encoding="UTF-8" standalone="no"?>
<svg
   version="1.1"
   viewBox="-55 0 2103 2048"
   id="svg1"
   sodipodi:docname="5F.combining.svg"
   inkscape:version="1.3.2 (091e20ef0f, 2023-11-25)"
   xmlns:inkscape="http://www.inkscape.org/namespaces/inkscape"
   xmlns:sodipodi="http://sodipodi.sourceforge.net/DTD/sodipodi-0.dtd"
   xmlns="http://www.w3.org/2000/svg"
   xmlns:svg="http://www.w3.org/2000/svg">
  <defs
     id="defs1" />
  <sodipodi:namedview
     id="namedview1"
     pagecolor="#ffffff"
     bordercolor="#000000"
     borderopacity="0.25"
     inkscape:showpageshadow="2"
     inkscape:pageopacity="0.0"
     inkscape:pagecheckerboard="0"
     inkscape:deskcolor="#d1d1d1"
     inkscape:zoom="0.25394675"
     inkscape:cx="-94.508002"
     inkscape:cy="1764.1494"
     inkscape:window-width="2736"
     inkscape:window-height="1744"
     inkscape:window-x="0"
     inkscape:window-y="0"
     inkscape:window-maximized="1"
     inkscape:current-layer="svg1" />
  <path
     id="path1"
     d="M 787.98633 350.56836 L 787.98633 700.79297 L 884.62891 700.79297 L 884.62891 350.56836 L 787.98633 350.56836 z M 516.62695 405.03906 C 398.92614 412.88575 292.55709 455.60816 197.52148 533.20508 L 194.90625 530.58984 C 242.8592 579.41373 266.83594 604.26237 266.83594 605.13477 C 344.4324 544.97605 427.69745 511.40849 516.62695 504.43359 L 516.62695 405.03906 z M 121.66797 597.28711 L 127.85352 602.23438 L 125.5918 599.90234 L 121.66797 597.28711 z M 127.85352 602.23438 L 128.16992 602.56055 C 128.18192 602.54655 128.19503 602.53158 128.20703 602.51758 L 127.85352 602.23438 z M 128.16992 602.56055 C 81.861876 655.42086 47.107033 713.25568 23.761719 776 L -45 776 L -45 926 L 787.98633 926 L 787.98633 1152.9727 L 884.62891 1152.9727 L 884.62891 926 L 1180 926 L 1180 776 L 131.81445 776 C 148.94241 740.02777 170.65788 706.51229 197.52148 675.75586 C 197.52148 674.88347 187.49405 663.98492 167.44141 643.06055 L 128.16992 602.56055 z M -9.1113281 1018.4023 C -0.39745673 1144.7546 42.284816 1253.686 118.92969 1345.2012 C 123.01026 1340.3409 144.44983 1318.1234 189.67578 1272.1172 C 132.13236 1200.6249 99.001984 1116.0533 90.283203 1018.4023 L -9.1113281 1018.4023 z M 118.92969 1345.2012 C 118.44769 1345.7753 115.03886 1349.2773 115.13086 1349.2773 L 119.05273 1345.3535 C 119.01073 1345.3035 118.97164 1345.2515 118.92969 1345.2012 z M 787.98633 1254.9297 L 787.98633 1605.1543 L 884.62891 1605.1543 L 884.62891 1254.9297 L 787.98633 1254.9297 z M 258.99023 1345.3535 L 189.67578 1414.668 C 287.32538 1497.4953 396.31066 1542.8339 516.62891 1550.6816 L 516.62891 1451.2871 C 423.33797 1440.824 337.4586 1405.5124 258.99023 1345.3535 z " />
</svg>
