<?xml version="1.0" encoding="UTF-8" standalone="no"?>
<svg
   viewBox="-20 0 1168 2048"
   version="1.1"
   id="svg1"
   sodipodi:docname="60.combining.svg"
   inkscape:version="1.3.2 (091e20ef0f, 2023-11-25)"
   xmlns:inkscape="http://www.inkscape.org/namespaces/inkscape"
   xmlns:sodipodi="http://sodipodi.sourceforge.net/DTD/sodipodi-0.dtd"
   xmlns="http://www.w3.org/2000/svg"
   xmlns:svg="http://www.w3.org/2000/svg">
  <defs
     id="defs1" />
  <sodipodi:namedview
     id="namedview1"
     pagecolor="#ffffff"
     bordercolor="#000000"
     borderopacity="0.25"
     inkscape:showpageshadow="2"
     inkscape:pageopacity="0.0"
     inkscape:pagecheckerboard="0"
     inkscape:deskcolor="#d1d1d1"
     inkscape:zoom="0.37535628"
     inkscape:cx="383.63552"
     inkscape:cy="548.81192"
     inkscape:window-width="2736"
     inkscape:window-height="1744"
     inkscape:window-x="0"
     inkscape:window-y="0"
     inkscape:window-maximized="1"
     inkscape:current-layer="svg1" />
  <path
     id="path1"
     d="M 788.69727 486.45312 L 788.69727 836.67773 L 885.33984 836.67773 L 885.33984 486.45312 L 788.69727 486.45312 z M 517.33789 540.92383 C 399.63741 548.77052 293.26773 591.49312 198.23242 669.08984 L 195.61719 666.47461 C 243.56999 715.29834 267.54688 740.14714 267.54688 741.01953 C 345.1431 680.86099 428.40863 647.29325 517.33789 640.31836 L 517.33789 540.92383 z M 122.37891 733.17188 L 128.56445 738.11914 L 126.30273 735.78711 L 122.37891 733.17188 z M 128.56445 738.11914 L 128.88086 738.44531 C 128.89286 738.43131 128.90597 738.41634 128.91797 738.40234 L 128.56445 738.11914 z M 128.88086 738.44531 C 48.692048 829.98027 2.9297945 936.33689 -8.4023438 1057.5078 L 90.992188 1057.5078 C 102.32593 962.47439 138.07328 880.51749 198.23242 811.64062 C 198.23242 810.76825 188.20492 799.86961 168.15234 778.94531 L 128.88086 738.44531 z M 788.69727 938.63477 L 788.69727 1288.8574 L 885.33984 1288.8574 L 885.33984 938.63477 L 788.69727 938.63477 z M -8.4003906 1154.2871 C 0.31344766 1280.639 42.99596 1389.5709 119.64062 1481.0859 C 123.72117 1476.2257 145.16091 1454.008 190.38672 1408.002 C 132.84348 1336.5097 99.712919 1251.9378 90.994141 1154.2871 L -8.4003906 1154.2871 z M 119.64062 1481.0859 C 119.15863 1481.66 115.7498 1485.1621 115.8418 1485.1621 L 119.76367 1481.2383 C 119.72167 1481.1883 119.68257 1481.1362 119.64062 1481.0859 z M 788.69727 1390.8145 L 788.69727 1741.0391 L 885.33984 1741.0391 L 885.33984 1390.8145 L 788.69727 1390.8145 z M 259.70117 1481.2383 L 190.38672 1550.5527 C 288.03602 1633.38 397.02196 1678.7187 517.33984 1686.5664 L 517.33984 1587.1719 C 424.04919 1576.7088 338.16929 1541.3969 259.70117 1481.2383 z M 430 1838 L 430 2039 L 648 2039 L 648 1838 L 430 1838 z " />
</svg>
