<?xml version="1.0" encoding="UTF-8" standalone="no"?>
<svg
   viewBox="0 0 1168 2048"
   version="1.1"
   id="svg1"
   sodipodi:docname="61.combining.svg"
   inkscape:version="1.3.2 (091e20ef0f, 2023-11-25)"
   xmlns:inkscape="http://www.inkscape.org/namespaces/inkscape"
   xmlns:sodipodi="http://sodipodi.sourceforge.net/DTD/sodipodi-0.dtd"
   xmlns="http://www.w3.org/2000/svg"
   xmlns:svg="http://www.w3.org/2000/svg">
  <defs
     id="defs1" />
  <sodipodi:namedview
     id="namedview1"
     pagecolor="#ffffff"
     bordercolor="#000000"
     borderopacity="0.25"
     inkscape:showpageshadow="2"
     inkscape:pageopacity="0.0"
     inkscape:pagecheckerboard="0"
     inkscape:deskcolor="#d1d1d1"
     inkscape:zoom="0.48567467"
     inkscape:cx="413.85729"
     inkscape:cy="951.25406"
     inkscape:window-width="2736"
     inkscape:window-height="1744"
     inkscape:window-x="0"
     inkscape:window-y="0"
     inkscape:window-maximized="1"
     inkscape:current-layer="svg1" />
  <path
     id="path1"
     d="M 896 399.05469 C 856.00004 399.05469 821.49997 403.22137 792.5 411.55469 C 763.50003 419.88801 736.99998 430.38803 713 443.05469 L 746 566.05469 C 763.33331 558.72136 779.66669 552.55468 795 547.55469 C 810.33331 542.55469 827.00002 540.05469 845 540.05469 C 878.99997 540.05469 903.50001 548.0547 918.5 564.05469 C 933.49999 580.05467 941 602.05472 941 630.05469 C 941 666.05465 927.8333 699.88805 901.5 731.55469 C 891.57047 743.49526 880.18776 755.65046 867.36719 768.01758 L 788.08008 768.01758 L 788.08008 1118.2422 L 884.72266 1118.2422 L 884.72266 878.56055 C 958.90913 843.53244 1014.5404 804.03965 1051.5 760.05469 C 1091.8333 712.05474 1112 661.38796 1112 608.05469 C 1112 542.05475 1091.8333 490.72132 1051.5 454.05469 C 1011.1667 417.38805 959.33327 399.05469 896 399.05469 z M 516.7207 822.48828 C 399.02022 830.33497 292.65054 873.05757 197.61523 950.6543 L 195 948.03906 C 242.9528 996.86281 266.92969 1021.7116 266.92969 1022.584 C 344.52591 962.42538 427.79144 928.85771 516.7207 921.88281 L 516.7207 822.48828 z M 121.76172 1014.7363 L 127.94727 1019.6836 L 125.68555 1017.3516 L 121.76172 1014.7363 z M 127.94727 1019.6836 L 128.26367 1020.0098 C 128.27567 1019.9958 128.28878 1019.9808 128.30078 1019.9668 L 127.94727 1019.6836 z M 128.26367 1020.0098 C 48.074862 1111.5447 2.3126074 1217.9014 -9.0195312 1339.0723 L 90.375 1339.0723 C 101.70874 1244.0389 137.45609 1162.0819 197.61523 1093.2051 C 197.61523 1092.3327 187.58774 1081.434 167.53516 1060.5098 L 128.26367 1020.0098 z M 788.08008 1220.1992 L 788.08008 1570.4219 L 884.72266 1570.4219 L 884.72266 1220.1992 L 788.08008 1220.1992 z M -9.0175781 1435.8516 C -0.30373683 1562.2034 42.378774 1671.1354 119.02344 1762.6504 C 123.10398 1757.7902 144.54373 1735.5725 189.76953 1689.5664 C 132.22629 1618.0742 99.095736 1533.5023 90.376953 1435.8516 L -9.0175781 1435.8516 z M 119.02344 1762.6504 C 118.54144 1763.2245 115.13261 1766.7266 115.22461 1766.7266 L 119.14648 1762.8027 C 119.10448 1762.7527 119.06539 1762.7007 119.02344 1762.6504 z M 788.08008 1672.3789 L 788.08008 2022.6035 L 884.72266 2022.6035 L 884.72266 1672.3789 L 788.08008 1672.3789 z M 259.08398 1762.8027 L 189.76953 1832.1172 C 287.41883 1914.9444 396.40478 1960.2832 516.72266 1968.1309 L 516.72266 1868.7363 C 423.432 1858.2732 337.55211 1822.9614 259.08398 1762.8027 z " />
</svg>
