<?xml version="1.0" encoding="UTF-8" standalone="no"?>
<svg
   viewBox="-20 0 1168 2048"
   version="1.1"
   id="svg1"
   sodipodi:docname="62.combining.svg"
   inkscape:version="1.3.2 (091e20ef0f, 2023-11-25)"
   xmlns:inkscape="http://www.inkscape.org/namespaces/inkscape"
   xmlns:sodipodi="http://sodipodi.sourceforge.net/DTD/sodipodi-0.dtd"
   xmlns="http://www.w3.org/2000/svg"
   xmlns:svg="http://www.w3.org/2000/svg">
  <defs
     id="defs1" />
  <sodipodi:namedview
     id="namedview1"
     pagecolor="#ffffff"
     bordercolor="#000000"
     borderopacity="0.25"
     inkscape:showpageshadow="2"
     inkscape:pageopacity="0.0"
     inkscape:pagecheckerboard="0"
     inkscape:deskcolor="#d1d1d1"
     inkscape:zoom="0.19331922"
     inkscape:cx="160.35653"
     inkscape:cy="1675.9844"
     inkscape:window-width="2736"
     inkscape:window-height="1744"
     inkscape:window-x="0"
     inkscape:window-y="0"
     inkscape:window-maximized="1"
     inkscape:current-layer="svg1" />
  <path
     id="path1"
     d="M 457 405.05469 L 450 514.05469 C 497.99995 514.05469 536.6667 522.22137 566 538.55469 C 595.3333 554.888 610 579.38805 610 612.05469 C 610 644.05466 597.99998 666.38803 574 679.05469 C 550.00002 691.72134 508.99994 700.38802 451 705.05469 L 482.48242 837.87305 C 378.30073 851.10971 283.30749 892.62964 197.57227 962.63281 L 194.95703 960.01758 C 242.90983 1008.8413 266.88672 1033.6901 266.88672 1034.5625 C 344.48294 974.40397 427.74847 940.83622 516.67773 933.86133 L 516.67773 840.05469 L 623 840.05469 L 611 788.05469 C 654.33329 780.72136 690.33336 763.38799 719 736.05469 C 747.66664 708.72138 762 668.38796 762 615.05469 C 762 551.05475 735.66662 500.05465 683 462.05469 C 630.33338 424.05473 554.9999 405.05469 457 405.05469 z M 788.03711 779.99609 L 788.03711 1130.2207 L 884.67969 1130.2207 L 884.67969 779.99609 L 788.03711 779.99609 z M 121.71875 1026.7148 L 127.9043 1031.6621 L 125.64258 1029.3301 L 121.71875 1026.7148 z M 127.9043 1031.6621 L 128.2207 1031.9883 C 128.2327 1031.9743 128.24581 1031.9593 128.25781 1031.9453 L 127.9043 1031.6621 z M 128.2207 1031.9883 C 48.031893 1123.5232 2.2696387 1229.8799 -9.0625 1351.0508 L 90.332031 1351.0508 C 101.66577 1256.0174 137.41313 1174.0604 197.57227 1105.1836 C 197.57227 1104.3112 187.54477 1093.4126 167.49219 1072.4883 L 128.2207 1031.9883 z M 788.03711 1232.1777 L 788.03711 1582.4004 L 884.67969 1582.4004 L 884.67969 1232.1777 L 788.03711 1232.1777 z M -9.0605469 1447.8301 C -0.34670859 1574.182 42.335805 1683.1139 118.98047 1774.6289 C 123.06101 1769.7687 144.50076 1747.551 189.72656 1701.5449 C 132.18332 1630.0527 99.052766 1545.4808 90.333984 1447.8301 L -9.0605469 1447.8301 z M 118.98047 1774.6289 C 118.49847 1775.203 115.08964 1778.7051 115.18164 1778.7051 L 119.10352 1774.7812 C 119.06152 1774.7313 119.02242 1774.6792 118.98047 1774.6289 z M 788.03711 1684.3574 L 788.03711 2034.582 L 884.67969 2034.582 L 884.67969 1684.3574 L 788.03711 1684.3574 z M 259.04102 1774.7812 L 189.72656 1844.0957 C 287.37586 1926.9229 396.36181 1972.2617 516.67969 1980.1094 L 516.67969 1880.7148 C 423.38903 1870.2518 337.50914 1834.9399 259.04102 1774.7812 z " />
</svg>
