<?xml version="1.0" encoding="UTF-8" standalone="no"?>
<!-- Accent from Roboto font family (Regular). Apache License, Version 2.0. -->

<svg
   version="1.1"
   viewBox="-20 0 1168 2048"
   id="svg1"
   sodipodi:docname="combining_payerok.svg"
   inkscape:version="1.3.2 (091e20ef0f, 2023-11-25)"
   xmlns:inkscape="http://www.inkscape.org/namespaces/inkscape"
   xmlns:sodipodi="http://sodipodi.sourceforge.net/DTD/sodipodi-0.dtd"
   xmlns="http://www.w3.org/2000/svg"
   xmlns:svg="http://www.w3.org/2000/svg">
  <defs
     id="defs1" />
  <sodipodi:namedview
     id="namedview1"
     pagecolor="#ffffff"
     bordercolor="#000000"
     borderopacity="0.25"
     inkscape:showpageshadow="2"
     inkscape:pageopacity="0.0"
     inkscape:pagecheckerboard="0"
     inkscape:deskcolor="#d1d1d1"
     inkscape:zoom="0.86773523"
     inkscape:cx="306.54512"
     inkscape:cy="797.47828"
     inkscape:window-width="2736"
     inkscape:window-height="1744"
     inkscape:window-x="0"
     inkscape:window-y="0"
     inkscape:window-maximized="1"
     inkscape:current-layer="g1"
     showgrid="false" />
  <g
     transform="matrix(1 0 0 -1 0 1536)"
     id="g1">
    <path
       id="path1"
       d="M 363.19922 1511.4766 C 357.26361 1437.2815 378.3337 1378.8164 426.41211 1336.0801 C 474.49052 1293.3437 534.14382 1271.9746 605.37109 1271.9746 C 628.51996 1271.9746 651.37243 1275.2404 673.92773 1281.7695 L 645.4375 1175.8184 L 767.41406 1175.8184 L 842.20117 1455.3848 L 720.22461 1455.3848 L 702.41797 1387.7188 C 690.54676 1381.7831 677.4896 1376.7389 663.24414 1372.584 C 648.40513 1369.0226 630.29982 1367.2422 608.93164 1367.2422 C 561.44679 1367.2422 527.91172 1381.7847 508.32422 1410.8691 C 488.73672 1440.5472 479.53554 1474.0822 480.72266 1511.4766 L 363.19922 1511.4766 z M 788.03711 1185.2168 L 788.03711 834.99219 L 884.67969 834.99219 L 884.67969 1185.2168 L 788.03711 1185.2168 z M 516.67773 1130.7461 C 398.97701 1122.8994 292.60777 1080.1769 197.57227 1002.5801 L 194.95703 1005.1953 C 242.90993 956.37148 266.88672 931.52279 266.88672 930.65039 C 344.4831 990.80905 427.74829 1024.3767 516.67773 1031.3516 L 516.67773 1130.7461 z M 121.71875 938.49805 L 127.9043 933.55078 L 125.64258 935.88281 L 121.71875 938.49805 z M 127.9043 933.55078 L 128.2207 933.22461 C 128.2327 933.23861 128.24581 933.25358 128.25781 933.26758 L 127.9043 933.55078 z M 128.2207 933.22461 C 48.031736 841.68946 2.2696574 735.33327 -9.0625 614.16211 L 90.332031 614.16211 C 101.66579 709.19561 137.41301 791.15231 197.57227 860.0293 C 197.57227 860.90169 187.54481 871.80026 167.49219 892.72461 L 128.2207 933.22461 z M 788.03711 733.03516 L 788.03711 382.8125 L 884.67969 382.8125 L 884.67969 733.03516 L 788.03711 733.03516 z M -9.0605469 517.38281 C -0.34668428 391.03067 42.33567 282.0991 118.98047 190.58398 C 123.06103 195.44428 144.50066 217.66175 189.72656 263.66797 C 132.1832 335.16023 99.052758 419.73191 90.333984 517.38281 L -9.0605469 517.38281 z M 118.98047 190.58398 C 118.49847 190.00988 115.08964 186.50781 115.18164 186.50781 L 119.10352 190.43164 C 119.06152 190.48164 119.02242 190.53368 118.98047 190.58398 z M 788.03711 280.85547 L 788.03711 -69.369141 L 884.67969 -69.369141 L 884.67969 280.85547 L 788.03711 280.85547 z M 259.04102 190.43164 L 189.72656 121.11719 C 287.37606 38.28995 396.36157 -7.0488004 516.67969 -14.896484 L 516.67969 84.498047 C 423.38885 94.961125 337.5093 130.27286 259.04102 190.43164 z " />
  </g>
</svg>
