<?xml version="1.0" encoding="UTF-8" standalone="no"?>
<!-- Accent from Roboto font family (Regular). Apache License, Version 2.0. -->

<svg
   version="1.1"
   viewBox="-20 0 1168 2048"
   id="svg1"
   sodipodi:docname="combining_v.svg"
   inkscape:version="1.3.2 (091e20ef0f, 2023-11-25)"
   xmlns:inkscape="http://www.inkscape.org/namespaces/inkscape"
   xmlns:sodipodi="http://sodipodi.sourceforge.net/DTD/sodipodi-0.dtd"
   xmlns="http://www.w3.org/2000/svg"
   xmlns:svg="http://www.w3.org/2000/svg">
  <defs
     id="defs1" />
  <sodipodi:namedview
     id="namedview1"
     pagecolor="#ffffff"
     bordercolor="#000000"
     borderopacity="0.25"
     inkscape:showpageshadow="2"
     inkscape:pageopacity="0.0"
     inkscape:pagecheckerboard="0"
     inkscape:deskcolor="#d1d1d1"
     inkscape:zoom="0.5914159"
     inkscape:cx="483.58524"
     inkscape:cy="943.49848"
     inkscape:window-width="2736"
     inkscape:window-height="1744"
     inkscape:window-x="0"
     inkscape:window-y="0"
     inkscape:window-maximized="1"
     inkscape:current-layer="g1"
     showgrid="false" />
  <g
     transform="matrix(1 0 0 -1 0 1536)"
     id="g1">
    <path
       id="path1"
       d="M 710.32227 1536.3145 C 697.76546 1520.17 681.62081 1492.3647 661.88867 1452.9004 C 643.95038 1413.4361 626.01251 1369.4881 608.07422 1321.0547 C 591.92975 1274.4151 580.26907 1232.2584 573.09375 1194.5879 C 564.1246 1217.9078 554.25907 1241.2292 543.49609 1264.5488 C 532.73311 1287.8687 520.17486 1311.1881 505.82422 1334.5078 C 482.50444 1382.9413 457.39182 1422.4053 430.48438 1452.9004 C 403.57693 1483.3956 374.87402 1498.6445 344.37891 1498.6445 C 328.23444 1498.6445 310.29658 1495.9518 290.56445 1490.5703 L 247.51367 1477.1172 C 295.94708 1410.7455 338.10191 1341.6828 373.97852 1269.9297 C 409.85511 1198.1766 444.83521 1125.5255 478.91797 1051.9785 C 541.70202 1060.9476 591.0316 1076.1967 626.9082 1097.7227 C 657.40331 1189.208 692.38341 1275.3109 731.84766 1356.0332 C 758.7551 1408.0544 772.20898 1440.3436 772.20898 1452.9004 C 772.20898 1479.8079 765.92985 1499.5409 753.37305 1512.0977 C 740.81624 1526.4483 726.46673 1534.5206 710.32227 1536.3145 z M 258.84961 933.87109 L 258.84961 653.69141 L 336.16211 653.69141 L 336.16211 933.87109 L 258.84961 933.87109 z M 553.25 890.29492 L 553.25 810.7793 C 624.39348 805.19938 691.00694 778.34563 753.08398 730.21875 C 753.08398 730.91667 772.26467 750.79449 810.62695 789.85352 L 808.53516 787.76172 C 732.50683 849.83913 647.41048 884.01763 553.25 890.29492 z M 869.2168 736.49609 L 866.07812 734.4043 L 864.26953 732.53906 L 869.2168 736.49609 z M 864.26953 732.53906 L 863.98633 732.3125 C 863.99633 732.3013 864.00603 732.28854 864.01562 732.27734 L 864.26953 732.53906 z M 864.01562 732.27734 L 832.59961 699.87695 C 816.55753 683.13749 808.53516 674.41861 808.53516 673.7207 C 856.66252 618.61916 885.25914 553.05407 894.32617 477.02734 L 973.8418 477.02734 C 964.77611 573.96418 928.16675 659.0493 864.01562 732.27734 z M 258.84961 572.125 L 258.84961 291.94727 L 336.16211 291.94727 L 336.16211 572.125 L 258.84961 572.125 z M 894.32617 399.60352 C 887.35114 321.48287 860.8452 253.82657 814.81055 196.63281 C 850.99124 159.82788 868.14389 142.0523 871.4082 138.16406 C 932.72406 211.37609 966.8706 298.52191 973.8418 399.60352 L 894.32617 399.60352 z M 871.4082 138.16406 C 871.3746 138.12386 871.34415 138.08294 871.31055 138.04297 L 874.44727 134.9043 C 874.52087 134.9043 871.7938 137.70478 871.4082 138.16406 z M 258.84961 210.38281 L 258.84961 -69.796875 L 336.16211 -69.796875 L 336.16211 210.38281 L 258.84961 210.38281 z M 759.35938 138.04297 C 696.58482 89.915986 627.88063 61.667337 553.24805 53.296875 L 553.24805 -26.21875 C 649.50244 -19.940606 736.69102 16.330073 814.81055 82.591797 L 759.35938 138.04297 z " />
  </g>
</svg>
