<?xml version="1.0" encoding="UTF-8" standalone="no"?>
<!-- Accent from Roboto font family (Regular). Apache License, Version 2.0. -->

<svg
   version="1.1"
   viewBox="-20 0 1168 2048"
   id="svg1"
   sodipodi:docname="combining_inverted_v.svg"
   inkscape:version="1.3.2 (091e20ef0f, 2023-11-25)"
   xmlns:inkscape="http://www.inkscape.org/namespaces/inkscape"
   xmlns:sodipodi="http://sodipodi.sourceforge.net/DTD/sodipodi-0.dtd"
   xmlns="http://www.w3.org/2000/svg"
   xmlns:svg="http://www.w3.org/2000/svg">
  <defs
     id="defs1" />
  <sodipodi:namedview
     id="namedview1"
     pagecolor="#ffffff"
     bordercolor="#000000"
     borderopacity="0.25"
     inkscape:showpageshadow="2"
     inkscape:pageopacity="0.0"
     inkscape:pagecheckerboard="0"
     inkscape:deskcolor="#d1d1d1"
     inkscape:zoom="0.66798091"
     inkscape:cx="856.3119"
     inkscape:cy="842.83846"
     inkscape:window-width="2736"
     inkscape:window-height="1744"
     inkscape:window-x="0"
     inkscape:window-y="0"
     inkscape:window-maximized="1"
     inkscape:current-layer="g1"
     showgrid="false" />
  <g
     transform="matrix(1 0 0 -1 0 1536)"
     id="g1">
    <path
       id="path1"
       d="M 601.57031 1514.0664 C 553.1369 1506.8911 510.08448 1491.642 472.41406 1468.3223 C 454.47576 1418.0951 434.74471 1369.6611 413.21875 1323.0215 C 391.6928 1278.1757 372.85736 1240.5067 356.71289 1210.0117 C 342.36225 1179.5165 335.1875 1159.7835 335.1875 1150.8145 C 335.1875 1125.7008 341.46468 1106.8654 354.02148 1094.3086 C 366.57829 1081.7518 380.03217 1074.5771 394.38281 1072.7832 C 408.73345 1094.3091 423.98054 1123.0101 440.125 1158.8867 C 458.0633 1194.7633 474.20795 1233.3298 488.55859 1274.5879 C 502.90923 1315.8459 512.77671 1352.6212 518.1582 1384.9102 C 536.0965 1345.446 551.34359 1311.3614 563.90039 1282.6602 C 578.25104 1255.7527 589.01413 1235.1241 596.18945 1220.7734 C 615.92158 1190.2783 634.75701 1164.2682 652.69531 1142.7422 C 672.42744 1121.2163 696.64443 1110.4531 725.3457 1110.4531 C 737.9025 1110.4531 752.25201 1112.2463 768.39648 1115.834 C 786.33478 1119.4217 801.58382 1123.01 814.14062 1126.5977 C 780.05786 1173.2373 745.07777 1228.846 709.20117 1293.4238 C 675.11841 1358.0017 639.24073 1431.5502 601.57031 1514.0664 z M 258.85156 934.57812 L 258.85156 654.39844 L 336.16406 654.39844 L 336.16406 934.57812 L 258.85156 934.57812 z M 553.25195 891.00195 L 553.25195 811.48633 C 624.39543 805.90641 691.00889 779.05071 753.08594 730.92383 C 753.08594 731.62175 772.26662 751.50153 810.62891 790.56055 L 808.53711 788.46875 C 732.50879 850.5461 647.41243 884.72456 553.25195 891.00195 z M 869.21875 737.20312 L 866.08008 735.11133 L 864.27148 733.24414 L 869.21875 737.20312 z M 864.27148 733.24414 L 863.98828 733.01758 C 863.99828 733.00638 864.00798 732.99557 864.01758 732.98438 L 864.27148 733.24414 z M 864.01758 732.98438 L 832.60156 700.58398 C 816.55948 683.84452 808.53711 675.12564 808.53711 674.42773 C 856.66447 619.32619 885.26109 553.7611 894.32812 477.73438 L 973.84375 477.73438 C 964.77806 574.67121 928.1687 659.75633 864.01758 732.98438 z M 258.85156 572.83203 L 258.85156 292.6543 L 336.16406 292.6543 L 336.16406 572.83203 L 258.85156 572.83203 z M 894.32812 400.31055 C 887.35309 322.1899 860.84715 254.53164 814.8125 197.33789 C 850.99319 160.53296 868.14584 142.75933 871.41016 138.87109 C 932.72601 212.08312 966.87256 299.22894 973.84375 400.31055 L 894.32812 400.31055 z M 871.41016 138.87109 C 871.37656 138.83089 871.3461 138.78997 871.3125 138.75 L 874.44922 135.61133 C 874.52282 135.61133 871.79576 138.41181 871.41016 138.87109 z M 258.85156 211.08789 L 258.85156 -69.091797 L 336.16406 -69.091797 L 336.16406 211.08789 L 258.85156 211.08789 z M 759.36133 138.75 C 696.58677 90.623018 627.88259 62.372415 553.25 54.001953 L 553.25 -25.513672 C 649.50439 -19.235528 736.69298 17.037104 814.8125 83.298828 L 759.36133 138.75 z " />
  </g>
</svg>
