<?xml version="1.0" encoding="UTF-8" standalone="no"?>
<!-- Accent from Roboto font family (Regular). Apache License, Version 2.0. -->

<svg
   version="1.1"
   viewBox="-20 0 1168 2048"
   id="svg1"
   sodipodi:docname="combining_shaddah.svg"
   inkscape:version="1.3.2 (091e20ef0f, 2023-11-25)"
   xmlns:inkscape="http://www.inkscape.org/namespaces/inkscape"
   xmlns:sodipodi="http://sodipodi.sourceforge.net/DTD/sodipodi-0.dtd"
   xmlns="http://www.w3.org/2000/svg"
   xmlns:svg="http://www.w3.org/2000/svg">
  <defs
     id="defs1" />
  <sodipodi:namedview
     id="namedview1"
     pagecolor="#ffffff"
     bordercolor="#000000"
     borderopacity="0.25"
     inkscape:showpageshadow="2"
     inkscape:pageopacity="0.0"
     inkscape:pagecheckerboard="0"
     inkscape:deskcolor="#d1d1d1"
     inkscape:zoom="0.4986209"
     inkscape:cx="1010.788"
     inkscape:cy="537.48248"
     inkscape:window-width="2736"
     inkscape:window-height="1744"
     inkscape:window-x="0"
     inkscape:window-y="0"
     inkscape:window-maximized="1"
     inkscape:current-layer="g1"
     showgrid="false" />
  <g
     transform="matrix(1 0 0 -1 0 1536)"
     id="g1">
    <path
       id="path1"
       d="M 729.70117 1474.541 C 713.55671 1470.9533 698.30768 1461.0878 683.95703 1444.9434 C 671.40022 1430.5927 665.12305 1416.2413 665.12305 1401.8906 L 670.50391 1380.3652 C 693.82369 1328.3441 706.38 1296.0548 708.17383 1283.498 C 706.38 1276.3228 700.10282 1269.146 689.33984 1261.9707 C 680.37069 1256.5892 670.50321 1253.8984 659.74023 1253.8984 C 631.03896 1253.8984 609.51275 1262.8684 595.16211 1280.8066 C 580.81146 1300.5388 569.15274 1338.2097 560.18359 1393.8184 L 503.67773 1358.8379 L 509.05859 1275.4258 C 510.85242 1252.1061 505.47087 1233.2706 492.91406 1218.9199 C 480.35726 1206.363 464.2126 1200.084 444.48047 1200.084 C 406.81005 1200.084 387.97461 1222.5077 387.97461 1267.3535 C 387.97461 1292.4672 390.66539 1313.9934 396.04688 1331.9316 L 361.06836 1340.0039 C 339.5424 1300.5396 328.7793 1263.7644 328.7793 1229.6816 C 328.7793 1190.2174 338.64482 1160.6209 358.37695 1140.8887 C 379.90291 1121.1567 406.81067 1111.2891 439.09961 1111.2891 C 492.9145 1111.2891 532.37856 1141.7852 557.49219 1202.7754 C 579.01814 1177.6617 607.71911 1165.1055 643.5957 1165.1055 C 679.47231 1165.1055 709.96842 1179.455 735.08203 1208.1562 C 760.19565 1238.6513 772.75195 1274.529 772.75195 1315.7871 C 772.75195 1330.1378 769.16556 1352.5596 761.99023 1383.0547 C 756.60875 1413.5498 745.84564 1444.0459 729.70117 1474.541 z M 258.80469 934.30469 L 258.80469 654.125 L 336.11914 654.125 L 336.11914 934.30469 L 258.80469 934.30469 z M 553.20508 890.72852 L 553.20508 811.21289 C 624.34856 805.63298 690.96201 778.77727 753.03906 730.65039 C 753.03906 731.34831 772.21975 751.22809 810.58203 790.28711 L 808.49023 788.19531 C 732.46191 850.27268 647.36555 884.45112 553.20508 890.72852 z M 869.17383 736.92969 L 866.0332 734.83789 L 864.22461 732.9707 L 869.17383 736.92969 z M 864.22461 732.9707 L 863.94141 732.74414 C 863.95141 732.73294 863.9611 732.72214 863.9707 732.71094 L 864.22461 732.9707 z M 863.9707 732.71094 L 832.55469 700.31055 C 816.5126 683.57108 808.49023 674.85221 808.49023 674.1543 C 856.6176 619.05275 885.21617 553.48766 894.2832 477.46094 L 973.79883 477.46094 C 964.73314 574.39777 928.12183 659.48289 863.9707 732.71094 z M 258.80469 572.55859 L 258.80469 292.38086 L 336.11914 292.38086 L 336.11914 572.55859 L 258.80469 572.55859 z M 894.28125 400.03711 C 887.30622 321.91647 860.80223 254.25821 814.76758 197.06445 C 850.94827 160.25952 868.09896 142.48589 871.36328 138.59766 C 932.67914 211.80968 966.82568 298.9555 973.79688 400.03711 L 894.28125 400.03711 z M 871.36328 138.59766 C 871.32968 138.55746 871.29922 138.51653 871.26562 138.47656 L 874.40234 135.33789 C 874.47594 135.33789 871.74888 138.13838 871.36328 138.59766 z M 258.80469 210.81445 L 258.80469 -69.365234 L 336.11914 -69.365234 L 336.11914 210.81445 L 258.80469 210.81445 z M 759.31445 138.47656 C 696.5399 90.349576 627.83766 62.098977 553.20508 53.728516 L 553.20508 -25.787109 C 649.45947 -19.508966 736.64806 16.763667 814.76758 83.025391 L 759.31445 138.47656 z " />
  </g>
</svg>
