<?xml version="1.0" encoding="UTF-8" standalone="no"?>
<!-- Accent from Roboto font family (Regular). Apache License, Version 2.0. -->

<svg
   version="1.1"
   viewBox="-20 0 1168 2048"
   id="svg1"
   sodipodi:docname="combining_sukun.svg"
   inkscape:version="1.3.2 (091e20ef0f, 2023-11-25)"
   xmlns:inkscape="http://www.inkscape.org/namespaces/inkscape"
   xmlns:sodipodi="http://sodipodi.sourceforge.net/DTD/sodipodi-0.dtd"
   xmlns="http://www.w3.org/2000/svg"
   xmlns:svg="http://www.w3.org/2000/svg">
  <defs
     id="defs1" />
  <sodipodi:namedview
     id="namedview1"
     pagecolor="#ffffff"
     bordercolor="#000000"
     borderopacity="0.25"
     inkscape:showpageshadow="2"
     inkscape:pageopacity="0.0"
     inkscape:pagecheckerboard="0"
     inkscape:deskcolor="#d1d1d1"
     inkscape:zoom="0.29789111"
     inkscape:cx="621.0323"
     inkscape:cy="1235.3507"
     inkscape:window-width="2736"
     inkscape:window-height="1744"
     inkscape:window-x="0"
     inkscape:window-y="0"
     inkscape:window-maximized="1"
     inkscape:current-layer="g1"
     showgrid="false" />
  <g
     transform="matrix(1 0 0 -1 0 1536)"
     id="g1">
    <path
       id="path1"
       d="M 550.31055 1434.1758 C 516.22778 1434.1758 484.83604 1417.1335 456.13477 1383.0508 C 429.22732 1350.7618 415.77344 1309.5046 415.77344 1259.2773 C 415.77344 1214.4316 427.43412 1177.6583 450.75391 1148.957 C 475.86752 1120.2558 508.15683 1105.9043 547.62109 1105.9043 C 583.49769 1105.9043 615.78701 1120.2558 644.48828 1148.957 C 674.98339 1179.4521 690.23047 1215.3278 690.23047 1256.5859 C 690.23047 1308.607 675.87901 1350.7618 647.17773 1383.0508 C 618.47645 1417.1335 586.18714 1434.1758 550.31055 1434.1758 z M 536.85742 1337.3086 C 561.97105 1337.3086 584.39482 1327.443 604.12695 1307.7109 C 625.6529 1289.7727 636.41602 1272.7303 636.41602 1256.5859 C 636.41602 1244.0291 627.44611 1231.4729 609.50781 1218.916 C 591.56952 1208.1531 571.83651 1202.7715 550.31055 1202.7715 C 496.49565 1202.7715 469.58789 1226.0909 469.58789 1272.7305 C 469.58789 1294.2564 476.76459 1310.4011 491.11523 1321.1641 C 507.2597 1331.9271 522.50679 1337.3086 536.85742 1337.3086 z M 258.19727 934.34961 L 258.19727 654.16992 L 335.51172 654.16992 L 335.51172 934.34961 L 258.19727 934.34961 z M 552.59961 890.77344 L 552.59961 811.25781 C 623.74309 805.6779 690.35459 778.82415 752.43164 730.69727 C 752.43164 731.39518 771.61233 751.27301 809.97461 790.33203 L 807.88281 788.24023 C 731.85449 850.31765 646.76009 884.49614 552.59961 890.77344 z M 868.56641 736.97461 L 865.42773 734.88281 L 863.61719 733.01758 L 868.56641 736.97461 z M 863.61719 733.01758 L 863.33398 732.79102 C 863.34398 732.77982 863.35563 732.76706 863.36523 732.75586 L 863.61719 733.01758 z M 863.36523 732.75586 L 831.94727 700.35547 C 815.90518 683.61601 807.88281 674.89713 807.88281 674.19922 C 856.01017 619.09767 884.60875 553.53258 893.67578 477.50586 L 973.19141 477.50586 C 964.12572 574.44269 927.51636 659.52781 863.36523 732.75586 z M 258.19727 572.60547 L 258.19727 292.42578 L 335.51172 292.42578 L 335.51172 572.60547 L 258.19727 572.60547 z M 893.67383 400.08203 C 886.6988 321.96139 860.19481 254.30508 814.16016 197.11133 C 850.34085 160.30639 867.49154 142.53277 870.75586 138.64453 C 932.07172 211.85656 966.21826 299.00042 973.18945 400.08203 L 893.67383 400.08203 z M 870.75586 138.64453 C 870.72226 138.60433 870.6918 138.56145 870.6582 138.52148 L 873.79492 135.38281 C 873.86852 135.38281 871.14146 138.18525 870.75586 138.64453 z M 258.19727 210.86133 L 258.19727 -69.318359 L 335.51172 -69.318359 L 335.51172 210.86133 L 258.19727 210.86133 z M 758.70898 138.52148 C 695.93443 90.394499 627.23024 62.145852 552.59766 53.775391 L 552.59766 -25.740234 C 648.85205 -19.462091 736.04063 16.808589 814.16016 83.070312 L 758.70898 138.52148 z " />
  </g>
</svg>
