<?xml version="1.0" encoding="UTF-8" standalone="no"?>
<!-- Accent from Roboto font family (Regular). Apache License, Version 2.0. -->

<svg
   version="1.1"
   viewBox="-20 0 1168 2048"
   id="svg1"
   sodipodi:docname="combining_fatha.svg"
   inkscape:version="1.3.2 (091e20ef0f, 2023-11-25)"
   xmlns:inkscape="http://www.inkscape.org/namespaces/inkscape"
   xmlns:sodipodi="http://sodipodi.sourceforge.net/DTD/sodipodi-0.dtd"
   xmlns="http://www.w3.org/2000/svg"
   xmlns:svg="http://www.w3.org/2000/svg">
  <defs
     id="defs1" />
  <sodipodi:namedview
     id="namedview1"
     pagecolor="#ffffff"
     bordercolor="#000000"
     borderopacity="0.25"
     inkscape:showpageshadow="2"
     inkscape:pageopacity="0.0"
     inkscape:pagecheckerboard="0"
     inkscape:deskcolor="#d1d1d1"
     inkscape:zoom="0.7242663"
     inkscape:cx="374.17177"
     inkscape:cy="850.5159"
     inkscape:window-width="2736"
     inkscape:window-height="1744"
     inkscape:window-x="0"
     inkscape:window-y="0"
     inkscape:window-maximized="1"
     inkscape:current-layer="g1"
     showgrid="false" />
  <g
     transform="matrix(1 0 0 -1 0 1536)"
     id="g1">
    <path
       id="path1"
       d="M 804.83789 1445.6855 C 759.99216 1427.7473 698.10429 1405.3254 619.17578 1378.418 C 540.24727 1351.5106 444.27689 1319.2211 331.26562 1281.5508 L 317.81055 1165.8477 C 412.88352 1194.5489 495.40001 1221.4566 565.35938 1246.5703 C 637.11256 1273.4778 697.20722 1298.5923 745.64062 1321.9121 C 786.89871 1339.8504 807.52734 1371.242 807.52734 1416.0879 L 804.83789 1445.6855 z M 259.0293 934.19336 L 259.0293 654.01367 L 336.34375 654.01367 L 336.34375 934.19336 L 259.0293 934.19336 z M 553.42969 890.61719 L 553.42969 811.10156 C 624.57317 805.52165 691.18662 778.6679 753.26367 730.54102 C 753.26367 731.23893 772.44436 751.11871 810.80664 790.17773 L 808.71484 788.08398 C 732.68652 850.16134 647.59016 884.33979 553.42969 890.61719 z M 869.39844 736.81836 L 866.25781 734.72656 L 864.44922 732.86133 L 869.39844 736.81836 z M 864.44922 732.86133 L 864.16602 732.63477 C 864.17602 732.62357 864.18571 732.61081 864.19531 732.59961 L 864.44922 732.86133 z M 864.19531 732.59961 L 832.7793 700.20117 C 816.73721 683.46171 808.71484 674.74283 808.71484 674.04492 C 856.84221 618.94338 885.44078 553.37633 894.50781 477.34961 L 974.02344 477.34961 C 964.95775 574.28644 928.34644 659.37156 864.19531 732.59961 z M 259.0293 572.44922 L 259.0293 292.27148 L 336.34375 292.27148 L 336.34375 572.44922 L 259.0293 572.44922 z M 894.50586 399.92773 C 887.53083 321.80709 861.02684 254.14883 814.99219 196.95508 C 851.17288 160.15014 868.32357 142.37652 871.58789 138.48828 C 932.90375 211.70031 967.05029 298.84613 974.02148 399.92773 L 894.50586 399.92773 z M 871.58789 138.48828 C 871.55429 138.44808 871.52383 138.4052 871.49023 138.36523 L 874.62695 135.22656 C 874.70055 135.22656 871.97349 138.029 871.58789 138.48828 z M 259.0293 210.70508 L 259.0293 -69.474609 L 336.34375 -69.474609 L 336.34375 210.70508 L 259.0293 210.70508 z M 759.53906 138.36523 C 696.76451 90.238248 628.06227 61.989602 553.42969 53.619141 L 553.42969 -25.896484 C 649.68408 -19.618341 736.87267 16.652339 814.99219 82.914062 L 759.53906 138.36523 z " />
  </g>
</svg>
