<?xml version="1.0" encoding="UTF-8" standalone="no"?>
<!-- Accent from Roboto font family (Regular). Apache License, Version 2.0. -->

<svg
   version="1.1"
   viewBox="-20 0 1168 2048"
   id="svg1"
   sodipodi:docname="combining_dammah.svg"
   inkscape:version="1.3.2 (091e20ef0f, 2023-11-25)"
   xmlns:inkscape="http://www.inkscape.org/namespaces/inkscape"
   xmlns:sodipodi="http://sodipodi.sourceforge.net/DTD/sodipodi-0.dtd"
   xmlns="http://www.w3.org/2000/svg"
   xmlns:svg="http://www.w3.org/2000/svg">
  <defs
     id="defs1" />
  <sodipodi:namedview
     id="namedview1"
     pagecolor="#ffffff"
     bordercolor="#000000"
     borderopacity="0.25"
     inkscape:showpageshadow="2"
     inkscape:pageopacity="0.0"
     inkscape:pagecheckerboard="0"
     inkscape:deskcolor="#d1d1d1"
     inkscape:zoom="0.72507482"
     inkscape:cx="286.86695"
     inkscape:cy="886.80503"
     inkscape:window-width="2736"
     inkscape:window-height="1744"
     inkscape:window-x="0"
     inkscape:window-y="0"
     inkscape:window-maximized="1"
     inkscape:current-layer="g1"
     showgrid="false" />
  <g
     transform="matrix(1 0 0 -1 0 1536)"
     id="g1">
    <path
       id="path1"
       d="M 659.19336 1518.0391 C 625.11059 1518.0391 590.1305 1500.9967 554.25391 1466.9141 C 520.17114 1432.8312 503.13086 1394.2648 503.13086 1351.2129 C 503.13086 1297.398 536.31581 1255.243 602.6875 1224.748 C 565.01708 1199.6344 525.55301 1178.1082 484.29492 1160.1699 C 443.03683 1144.0254 399.08879 1131.467 352.44922 1122.498 C 352.44922 1077.6522 377.56183 1055.2305 427.78906 1055.2305 C 501.33609 1055.2305 586.54334 1103.6644 683.41016 1200.5312 L 715.69922 1197.8398 C 751.57581 1197.8398 777.586 1203.2214 793.73047 1213.9844 C 811.66876 1224.7474 821.53625 1244.4805 823.33008 1273.1816 L 739.91602 1278.5625 C 748.88517 1301.8823 753.36914 1324.3062 753.36914 1345.832 C 753.36914 1410.41 740.81283 1457.9462 715.69922 1488.4414 C 701.34857 1508.1735 682.51315 1518.0391 659.19336 1518.0391 z M 626.9043 1431.9355 C 646.63643 1431.9355 660.98788 1422.9655 669.95703 1405.0273 C 680.72001 1387.0891 686.10156 1365.5629 686.10156 1340.4492 C 686.10156 1331.4801 683.41078 1319.8214 678.0293 1305.4707 L 672.64844 1292.0156 C 602.68908 1318.9231 567.70898 1352.1101 567.70898 1391.5742 C 567.70899 1400.5433 573.09054 1409.5113 583.85352 1418.4805 C 596.41031 1427.4496 610.75982 1431.9355 626.9043 1431.9355 z M 258.40039 935.28125 L 258.40039 655.10156 L 335.71289 655.10156 L 335.71289 935.28125 L 258.40039 935.28125 z M 552.80078 891.70508 L 552.80078 812.18945 C 623.94426 806.60954 690.55772 779.75579 752.63477 731.62891 C 752.63477 732.32683 771.81545 752.20465 810.17773 791.26367 L 808.08594 789.17188 C 732.05761 851.24926 646.96126 885.42778 552.80078 891.70508 z M 868.76758 737.90625 L 865.62891 735.81445 L 863.82031 733.94922 L 868.76758 737.90625 z M 863.82031 733.94922 L 863.53711 733.72266 C 863.54711 733.71146 863.55681 733.6987 863.56641 733.6875 L 863.82031 733.94922 z M 863.56641 733.6875 L 832.15039 701.28711 C 816.10831 684.54765 808.08594 675.82877 808.08594 675.13086 C 856.2133 620.02931 884.80992 554.46422 893.87695 478.4375 L 973.39258 478.4375 C 964.32689 575.37433 927.71753 660.45945 863.56641 733.6875 z M 258.40039 573.53711 L 258.40039 293.35742 L 335.71289 293.35742 L 335.71289 573.53711 L 258.40039 573.53711 z M 893.87695 401.01367 C 886.90192 322.89303 860.39598 255.23672 814.36133 198.04297 C 850.54202 161.23804 867.69467 143.46441 870.95898 139.57617 C 932.27484 212.7882 966.42139 299.93206 973.39258 401.01367 L 893.87695 401.01367 z M 870.95898 139.57617 C 870.92538 139.53597 870.89493 139.49309 870.86133 139.45312 L 873.99805 136.31445 C 874.07165 136.31445 871.34458 139.11689 870.95898 139.57617 z M 258.40039 211.79297 L 258.40039 -68.386719 L 335.71289 -68.386719 L 335.71289 211.79297 L 258.40039 211.79297 z M 758.91016 139.45312 C 696.1356 91.326145 627.43141 63.077493 552.79883 54.707031 L 552.79883 -24.808594 C 649.05322 -18.53045 736.24181 17.740229 814.36133 84.001953 L 758.91016 139.45312 z " />
  </g>
</svg>
