<?xml version="1.0" encoding="UTF-8" standalone="no"?>
<!-- Accent from Roboto font family (Regular). Apache License, Version 2.0. -->

<svg
   version="1.1"
   viewBox="-20 0 1168 2048"
   id="svg1"
   sodipodi:docname="combining_kasra.svg"
   inkscape:version="1.3.2 (091e20ef0f, 2023-11-25)"
   xmlns:inkscape="http://www.inkscape.org/namespaces/inkscape"
   xmlns:sodipodi="http://sodipodi.sourceforge.net/DTD/sodipodi-0.dtd"
   xmlns="http://www.w3.org/2000/svg"
   xmlns:svg="http://www.w3.org/2000/svg">
  <defs
     id="defs1" />
  <sodipodi:namedview
     id="namedview1"
     pagecolor="#ffffff"
     bordercolor="#000000"
     borderopacity="0.25"
     inkscape:showpageshadow="2"
     inkscape:pageopacity="0.0"
     inkscape:pagecheckerboard="0"
     inkscape:deskcolor="#d1d1d1"
     inkscape:zoom="0.59877929"
     inkscape:cx="384.11482"
     inkscape:cy="978.65777"
     inkscape:window-width="2736"
     inkscape:window-height="1744"
     inkscape:window-x="0"
     inkscape:window-y="0"
     inkscape:window-maximized="1"
     inkscape:current-layer="g1"
     showgrid="false" />
  <g
     transform="matrix(1 0 0 -1 0 1536)"
     id="g1">
    <path
       id="path1"
       d="M 258.38672 934.49219 L 258.38672 654.3125 L 335.70117 654.3125 L 335.70117 934.49219 L 258.38672 934.49219 z M 552.78906 890.91602 L 552.78906 811.40039 C 623.93254 805.82048 690.54405 778.96477 752.62109 730.83789 C 752.62109 731.53581 771.80178 751.41559 810.16406 790.47461 L 808.07227 788.38281 C 732.04394 850.46019 646.94954 884.63866 552.78906 890.91602 z M 868.75586 737.11719 L 865.61719 735.02539 L 863.80664 733.1582 L 868.75586 737.11719 z M 863.80664 733.1582 L 863.52344 732.93164 C 863.53344 732.92044 863.54509 732.90964 863.55469 732.89844 L 863.80664 733.1582 z M 863.55469 732.89844 L 832.13672 700.49805 C 816.09463 683.75858 808.07227 675.03971 808.07227 674.3418 C 856.19963 619.24026 884.7982 553.67516 893.86523 477.64844 L 973.38086 477.64844 C 964.31517 574.58526 927.70581 659.67039 863.55469 732.89844 z M 258.38672 572.74609 L 258.38672 292.56836 L 335.70117 292.56836 L 335.70117 572.74609 L 258.38672 572.74609 z M 893.86328 400.22461 C 886.88825 322.10397 860.38426 254.44571 814.34961 197.25195 C 850.5303 160.44702 867.681 142.67339 870.94531 138.78516 C 932.26117 211.99718 966.40771 299.14299 973.37891 400.22461 L 893.86328 400.22461 z M 870.94531 138.78516 C 870.91171 138.74496 870.88126 138.70403 870.84766 138.66406 L 873.98438 135.52539 C 874.05797 135.52539 871.33091 138.32588 870.94531 138.78516 z M 258.38672 211.00195 L 258.38672 -69.177734 L 335.70117 -69.177734 L 335.70117 211.00195 L 258.38672 211.00195 z M 758.89844 138.66406 C 696.12388 90.537089 627.41969 62.286467 552.78711 53.916016 L 552.78711 -25.599609 C 649.0415 -19.321469 736.23009 16.951167 814.34961 83.212891 L 758.89844 138.66406 z M 807.74805 -193.69336 C 762.9023 -211.63165 701.01445 -234.05545 622.08594 -260.96289 C 543.15743 -287.87033 447.18706 -320.15966 334.17578 -357.83008 L 320.72266 -473.53125 C 415.79563 -444.82998 498.31212 -417.02658 568.27148 -390.11914 C 640.02467 -365.00553 700.11933 -340.78854 748.55273 -317.46875 C 789.81082 -299.53046 810.43945 -268.13675 810.43945 -223.29102 L 807.74805 -193.69336 z " />
  </g>
</svg>
