<?xml version="1.0" encoding="UTF-8" standalone="no"?>
<!-- Accent from Roboto font family (Regular). Apache License, Version 2.0. -->

<svg
   version="1.1"
   viewBox="-20 0 1168 2048"
   id="svg1"
   sodipodi:docname="combining_hamza_above.svg"
   inkscape:version="1.3.2 (091e20ef0f, 2023-11-25)"
   xmlns:inkscape="http://www.inkscape.org/namespaces/inkscape"
   xmlns:sodipodi="http://sodipodi.sourceforge.net/DTD/sodipodi-0.dtd"
   xmlns="http://www.w3.org/2000/svg"
   xmlns:svg="http://www.w3.org/2000/svg">
  <defs
     id="defs1" />
  <sodipodi:namedview
     id="namedview1"
     pagecolor="#ffffff"
     bordercolor="#000000"
     borderopacity="0.25"
     inkscape:showpageshadow="2"
     inkscape:pageopacity="0.0"
     inkscape:pagecheckerboard="0"
     inkscape:deskcolor="#d1d1d1"
     inkscape:zoom="0.4470412"
     inkscape:cx="579.36494"
     inkscape:cy="865.69202"
     inkscape:window-width="2736"
     inkscape:window-height="1744"
     inkscape:window-x="0"
     inkscape:window-y="0"
     inkscape:window-maximized="1"
     inkscape:current-layer="g1"
     showgrid="false" />
  <g
     transform="matrix(1 0 0 -1 0 1536)"
     id="g1">
    <path
       id="path1"
       d="M 591.2168 1532.5977 C 558.92787 1532.5977 527.53613 1521.8346 497.04102 1500.3086 C 466.54591 1478.7827 441.43135 1451.8748 421.69922 1419.5859 C 401.96708 1387.297 392.10156 1354.1101 392.10156 1320.0273 C 392.10156 1259.0371 425.28651 1223.1614 491.6582 1212.3984 L 384.0293 1153.2012 L 392.10156 1048.2617 C 444.12263 1076.9629 493.45222 1101.1801 540.0918 1120.9121 C 588.5252 1140.6443 649.51547 1159.4797 723.0625 1177.418 L 728.44531 1279.666 C 672.83659 1268.903 628.88659 1263.5215 596.59766 1263.5215 C 540.98894 1263.5215 497.93652 1281.4613 467.44141 1317.3379 C 478.20439 1344.2454 494.34904 1367.5647 515.875 1387.2969 C 539.19478 1408.8229 565.20693 1419.5859 593.9082 1419.5859 C 602.87735 1419.5859 610.94968 1415.9976 618.125 1408.8223 C 625.30031 1401.647 628.88672 1393.5747 628.88672 1384.6055 L 626.19531 1373.8438 L 677.32031 1360.3887 C 689.87712 1383.7084 696.15625 1407.9254 696.15625 1433.0391 C 696.15625 1499.4108 661.17616 1532.5977 591.2168 1532.5977 z M 259.0625 934.48242 L 259.0625 654.30273 L 336.37695 654.30273 L 336.37695 934.48242 L 259.0625 934.48242 z M 553.46289 890.90625 L 553.46289 811.39062 C 624.60637 805.81071 691.21983 778.95696 753.29688 730.83008 C 753.29688 731.528 772.47756 751.40582 810.83984 790.46484 L 808.74805 788.37305 C 732.71972 850.4504 647.62337 884.62886 553.46289 890.90625 z M 869.43164 737.10742 L 866.29102 735.01562 L 864.48242 733.15039 L 869.43164 737.10742 z M 864.48242 733.15039 L 864.19922 732.92383 C 864.20922 732.91263 864.21892 732.89987 864.22852 732.88867 L 864.48242 733.15039 z M 864.22852 732.88867 L 832.8125 700.48828 C 816.77042 683.74882 808.74805 675.02994 808.74805 674.33203 C 856.87541 619.23049 885.47398 553.6654 894.54102 477.63867 L 974.05664 477.63867 C 964.99095 574.5755 928.37964 659.66063 864.22852 732.88867 z M 259.0625 572.73828 L 259.0625 292.55859 L 336.37695 292.55859 L 336.37695 572.73828 L 259.0625 572.73828 z M 894.53906 400.21484 C 887.56403 322.0942 861.06004 254.43789 815.02539 197.24414 C 851.20608 160.43921 868.35678 142.66558 871.62109 138.77734 C 932.93695 211.98937 967.08349 299.13323 974.05469 400.21484 L 894.53906 400.21484 z M 871.62109 138.77734 C 871.58749 138.73714 871.55704 138.69427 871.52344 138.6543 L 874.66016 135.51562 C 874.73376 135.51562 872.00669 138.31806 871.62109 138.77734 z M 259.0625 210.99414 L 259.0625 -69.185547 L 336.37695 -69.185547 L 336.37695 210.99414 L 259.0625 210.99414 z M 759.57227 138.6543 C 696.79771 90.527314 628.09548 62.278665 553.46289 53.908203 L 553.46289 -25.607422 C 649.71728 -19.329278 736.90587 16.941401 815.02539 83.203125 L 759.57227 138.6543 z " />
  </g>
</svg>
