<?xml version="1.0" encoding="UTF-8" standalone="no"?>
<!-- Accent from Roboto font family (Regular). Apache License, Version 2.0. -->

<svg
   version="1.1"
   viewBox="-20 0 1168 2048"
   id="svg1"
   sodipodi:docname="combining_hamza_below.svg"
   inkscape:version="1.3.2 (091e20ef0f, 2023-11-25)"
   xmlns:inkscape="http://www.inkscape.org/namespaces/inkscape"
   xmlns:sodipodi="http://sodipodi.sourceforge.net/DTD/sodipodi-0.dtd"
   xmlns="http://www.w3.org/2000/svg"
   xmlns:svg="http://www.w3.org/2000/svg">
  <defs
     id="defs1" />
  <sodipodi:namedview
     id="namedview1"
     pagecolor="#ffffff"
     bordercolor="#000000"
     borderopacity="0.25"
     inkscape:showpageshadow="2"
     inkscape:pageopacity="0.0"
     inkscape:pagecheckerboard="0"
     inkscape:deskcolor="#d1d1d1"
     inkscape:zoom="0.47864976"
     inkscape:cx="716.59913"
     inkscape:cy="1243.0801"
     inkscape:window-width="2736"
     inkscape:window-height="1744"
     inkscape:window-x="0"
     inkscape:window-y="0"
     inkscape:window-maximized="1"
     inkscape:current-layer="g1"
     showgrid="false" />
  <g
     transform="matrix(1 0 0 -1 0 1536)"
     id="g1">
    <path
       id="path1"
       d="M 258.88867 934.63086 L 258.88867 654.45117 L 336.20312 654.45117 L 336.20312 934.63086 L 258.88867 934.63086 z M 553.28906 891.05469 L 553.28906 811.53906 C 624.43254 805.95915 691.046 779.1054 753.12305 730.97852 C 753.12305 731.67643 772.30373 751.55426 810.66602 790.61328 L 808.57422 788.52148 C 732.54589 850.59886 647.44954 884.77733 553.28906 891.05469 z M 869.25781 737.25586 L 866.11719 735.16406 L 864.30859 733.29883 L 869.25781 737.25586 z M 864.30859 733.29883 L 864.02539 733.07227 C 864.03539 733.06107 864.04509 733.04831 864.05469 733.03711 L 864.30859 733.29883 z M 864.05469 733.03711 L 832.63867 700.63672 C 816.59659 683.89726 808.57422 675.17838 808.57422 674.48047 C 856.70158 619.37893 885.30016 553.81383 894.36719 477.78711 L 973.88281 477.78711 C 964.81712 574.72393 928.20581 659.80906 864.05469 733.03711 z M 258.88867 572.88672 L 258.88867 292.70703 L 336.20312 292.70703 L 336.20312 572.88672 L 258.88867 572.88672 z M 894.36523 400.36328 C 887.3902 322.24264 860.88622 254.58633 814.85156 197.39258 C 851.03226 160.58764 868.18295 142.81402 871.44727 138.92578 C 932.76312 212.13781 966.90967 299.28166 973.88086 400.36328 L 894.36523 400.36328 z M 871.44727 138.92578 C 871.41367 138.88558 871.38321 138.8427 871.34961 138.80273 L 874.48633 135.66406 C 874.55993 135.66406 871.83287 138.4665 871.44727 138.92578 z M 258.88867 211.14258 L 258.88867 -69.037109 L 336.20312 -69.037109 L 336.20312 211.14258 L 258.88867 211.14258 z M 759.39844 138.80273 C 696.62388 90.675767 627.92165 62.427092 553.28906 54.056641 L 553.28906 -25.458984 C 649.54346 -19.180844 736.73204 17.089837 814.85156 83.351562 L 759.39844 138.80273 z M 585.8125 -115.12695 C 553.52357 -115.12695 522.13183 -125.89006 491.63672 -147.41602 C 461.14161 -168.94196 436.02706 -195.84973 416.29492 -228.13867 C 396.56279 -260.42761 386.69727 -293.61256 386.69727 -327.69531 C 386.69727 -388.68552 419.88417 -424.56319 486.25586 -435.32617 L 378.625 -494.52344 L 386.69727 -599.46289 C 438.71833 -570.76162 488.04987 -546.54463 534.68945 -526.8125 C 583.12285 -507.08037 644.11313 -488.24493 717.66016 -470.30664 L 723.04102 -368.05664 C 667.43229 -378.81962 623.48424 -384.20117 591.19531 -384.20117 C 535.58659 -384.20117 492.53417 -366.26331 462.03906 -330.38672 C 472.80203 -303.47928 488.9467 -279.26229 510.47266 -257.73633 C 533.79244 -238.0042 559.80263 -228.13867 588.50391 -228.13867 C 597.47306 -228.13867 605.54538 -231.72703 612.7207 -238.90234 C 619.89602 -246.07767 623.48438 -254.14999 623.48438 -263.11914 L 620.79297 -273.88086 L 671.91602 -287.33594 C 684.47282 -264.01615 690.75195 -239.79916 690.75195 -214.68555 C 690.75195 -148.31384 655.77186 -115.12695 585.8125 -115.12695 z " />
  </g>
</svg>
