<?xml version="1.0" encoding="UTF-8" standalone="no"?>
<!-- Accent from Roboto font family (Regular). Apache License, Version 2.0. -->

<svg
   version="1.1"
   viewBox="-20 0 1168 2048"
   id="svg1"
   sodipodi:docname="combining_alef_above.svg"
   inkscape:version="1.3.2 (091e20ef0f, 2023-11-25)"
   xmlns:inkscape="http://www.inkscape.org/namespaces/inkscape"
   xmlns:sodipodi="http://sodipodi.sourceforge.net/DTD/sodipodi-0.dtd"
   xmlns="http://www.w3.org/2000/svg"
   xmlns:svg="http://www.w3.org/2000/svg">
  <defs
     id="defs1" />
  <sodipodi:namedview
     id="namedview1"
     pagecolor="#ffffff"
     bordercolor="#000000"
     borderopacity="0.25"
     inkscape:showpageshadow="2"
     inkscape:pageopacity="0.0"
     inkscape:pagecheckerboard="0"
     inkscape:deskcolor="#d1d1d1"
     inkscape:zoom="0.3683762"
     inkscape:cx="632.50558"
     inkscape:cy="784.52408"
     inkscape:window-width="2736"
     inkscape:window-height="1744"
     inkscape:window-x="0"
     inkscape:window-y="0"
     inkscape:window-maximized="1"
     inkscape:current-layer="g1"
     showgrid="false" />
  <g
     transform="matrix(1 0 0 -1 0 1536)"
     id="g1">
    <path
       id="path1"
       d="M 581.04883 1605.1855 C 552.34756 1594.4227 529.02815 1574.6895 511.08984 1545.9883 C 493.15155 1519.0808 484.18164 1487.6892 484.18164 1451.8125 C 484.18164 1437.4618 486.87241 1417.7289 492.25391 1392.6152 C 508.39837 1331.6251 520.05905 1266.1507 527.23438 1196.1914 C 534.40969 1128.0259 537.99805 1057.1702 537.99805 983.62305 L 554.14258 978.24023 C 598.98831 1041.0243 621.41016 1117.2636 621.41016 1206.9551 C 621.41016 1248.213 620.51258 1285.8839 618.71875 1319.9668 C 618.71875 1354.0496 616.02797 1392.616 610.64648 1435.668 C 605.26499 1480.5137 595.39947 1537.02 581.04883 1605.1855 z M 258.31055 934.70703 L 258.31055 654.52734 L 335.625 654.52734 L 335.625 934.70703 L 258.31055 934.70703 z M 552.71289 891.13086 L 552.71289 811.61523 C 623.85637 806.03534 690.46787 779.18157 752.54492 731.05469 C 752.54492 731.75261 771.72756 751.63239 810.08984 790.69141 L 807.99805 788.59766 C 731.96972 850.67499 646.87337 884.85347 552.71289 891.13086 z M 868.67969 737.33203 L 865.54102 735.24023 L 863.73242 733.375 L 868.67969 737.33203 z M 863.73242 733.375 L 863.44922 733.14844 C 863.45922 733.13724 863.46892 733.12448 863.47852 733.11328 L 863.73242 733.375 z M 863.47852 733.11328 L 832.06055 700.71484 C 816.01846 683.97538 807.99805 675.2565 807.99805 674.55859 C 856.12541 619.45705 884.72203 553.89001 893.78906 477.86328 L 973.30469 477.86328 C 964.239 574.80011 927.62964 659.88523 863.47852 733.11328 z M 258.31055 572.96289 L 258.31055 292.78516 L 335.625 292.78516 L 335.625 572.96289 L 258.31055 572.96289 z M 893.78711 400.44141 C 886.81208 322.32076 860.30809 254.6625 814.27344 197.46875 C 850.45413 160.66382 867.60678 142.89019 870.87109 139.00195 C 932.18695 212.21398 966.33154 299.3598 973.30273 400.44141 L 893.78711 400.44141 z M 870.87109 139.00195 C 870.83749 138.96175 870.80508 138.91888 870.77148 138.87891 L 873.91016 135.74023 C 873.98376 135.74023 871.25669 138.54267 870.87109 139.00195 z M 258.31055 211.21875 L 258.31055 -68.960938 L 335.625 -68.960938 L 335.625 211.21875 L 258.31055 211.21875 z M 758.82227 138.87891 C 696.04771 90.751927 627.34352 62.503274 552.71094 54.132812 L 552.71094 -25.382812 C 648.96533 -19.104669 736.15392 17.166011 814.27344 83.427734 L 758.82227 138.87891 z " />
  </g>
</svg>
