<?xml version="1.0" encoding="UTF-8" standalone="no"?>
<!-- Accent from Roboto font family (Regular). Apache License, Version 2.0. -->

<svg
   version="1.1"
   viewBox="-20 0 1168 2048"
   id="svg1"
   sodipodi:docname="combining_fathatan.svg"
   inkscape:version="1.3.2 (091e20ef0f, 2023-11-25)"
   xmlns:inkscape="http://www.inkscape.org/namespaces/inkscape"
   xmlns:sodipodi="http://sodipodi.sourceforge.net/DTD/sodipodi-0.dtd"
   xmlns="http://www.w3.org/2000/svg"
   xmlns:svg="http://www.w3.org/2000/svg">
  <defs
     id="defs1" />
  <sodipodi:namedview
     id="namedview1"
     pagecolor="#ffffff"
     bordercolor="#000000"
     borderopacity="0.25"
     inkscape:showpageshadow="2"
     inkscape:pageopacity="0.0"
     inkscape:pagecheckerboard="0"
     inkscape:deskcolor="#d1d1d1"
     inkscape:zoom="0.75869535"
     inkscape:cx="637.93721"
     inkscape:cy="784.241"
     inkscape:window-width="2736"
     inkscape:window-height="1744"
     inkscape:window-x="0"
     inkscape:window-y="0"
     inkscape:window-maximized="1"
     inkscape:current-layer="g1"
     showgrid="false" />
  <g
     transform="matrix(1 0 0 -1 0 1536)"
     id="g1">
    <path
       id="path1"
       d="M 774.55469 1534.2715 C 695.62617 1501.9825 616.69804 1472.384 537.76953 1445.4766 C 458.84102 1418.5692 379.91093 1392.559 300.98242 1367.4453 L 292.91016 1259.8164 C 377.22016 1284.9301 455.25267 1309.147 527.00586 1332.4668 C 598.75905 1355.7866 662.4401 1380.0016 718.04883 1405.1152 C 757.51308 1421.2597 777.24609 1454.4467 777.24609 1504.6738 L 774.55469 1534.2715 z M 806.84375 1348.6094 C 713.5646 1312.7328 627.45976 1280.4454 548.53125 1251.7441 C 469.60274 1224.8367 396.95372 1201.5154 330.58203 1181.7832 L 319.81836 1068.7715 C 409.50985 1097.4727 490.23314 1124.3805 561.98633 1149.4941 C 633.73951 1176.4016 695.62738 1201.5162 747.64844 1224.8359 C 788.90653 1244.5681 809.53516 1276.8574 809.53516 1321.7031 L 806.84375 1348.6094 z M 258.56445 935 L 258.56445 654.82031 L 335.87891 654.82031 L 335.87891 935 L 258.56445 935 z M 552.9668 891.42383 L 552.9668 811.9082 C 624.11028 806.32829 690.72178 779.47454 752.79883 731.34766 C 752.79883 732.04558 771.98147 751.9234 810.34375 790.98242 L 808.25 788.89062 C 732.22168 850.96797 647.12727 885.14643 552.9668 891.42383 z M 868.93359 737.625 L 865.79492 735.5332 L 863.98438 733.66797 L 868.93359 737.625 z M 863.98438 733.66797 L 863.70312 733.44141 C 863.71312 733.43021 863.72282 733.41745 863.73242 733.40625 L 863.98438 733.66797 z M 863.73242 733.40625 L 832.31445 701.00586 C 816.27237 684.2664 808.25 675.54752 808.25 674.84961 C 856.37736 619.74806 884.97594 554.18297 894.04297 478.15625 L 973.55859 478.15625 C 964.4929 575.09308 927.88355 660.1782 863.73242 733.40625 z M 258.56445 573.25586 L 258.56445 293.07617 L 335.87891 293.07617 L 335.87891 573.25586 L 258.56445 573.25586 z M 894.04102 400.73242 C 887.06598 322.61178 860.562 254.95547 814.52734 197.76172 C 850.70804 160.95679 867.86068 143.18316 871.125 139.29492 C 932.44086 212.50695 966.58545 299.65081 973.55664 400.73242 L 894.04102 400.73242 z M 871.125 139.29492 C 871.0914 139.25472 871.05899 139.21184 871.02539 139.17188 L 874.16406 136.0332 C 874.23766 136.0332 871.5106 138.83564 871.125 139.29492 z M 258.56445 211.51172 L 258.56445 -68.667969 L 335.87891 -68.667969 L 335.87891 211.51172 L 258.56445 211.51172 z M 759.07617 139.17188 C 696.30161 91.044895 627.59743 62.796243 552.96484 54.425781 L 552.96484 -25.089844 C 649.21924 -18.8117 736.40782 17.458979 814.52734 83.720703 L 759.07617 139.17188 z " />
  </g>
</svg>
