<?xml version="1.0" encoding="UTF-8" standalone="no"?>
<!-- Accent from Roboto font family (Regular). Apache License, Version 2.0. -->

<svg
   version="1.1"
   viewBox="-20 0 1168 2048"
   id="svg1"
   sodipodi:docname="combining_kasratan.svg"
   inkscape:version="1.3.2 (091e20ef0f, 2023-11-25)"
   xmlns:inkscape="http://www.inkscape.org/namespaces/inkscape"
   xmlns:sodipodi="http://sodipodi.sourceforge.net/DTD/sodipodi-0.dtd"
   xmlns="http://www.w3.org/2000/svg"
   xmlns:svg="http://www.w3.org/2000/svg">
  <defs
     id="defs1" />
  <sodipodi:namedview
     id="namedview1"
     pagecolor="#ffffff"
     bordercolor="#000000"
     borderopacity="0.25"
     inkscape:showpageshadow="2"
     inkscape:pageopacity="0.0"
     inkscape:pagecheckerboard="0"
     inkscape:deskcolor="#d1d1d1"
     inkscape:zoom="0.76665717"
     inkscape:cx="520.44123"
     inkscape:cy="1211.7541"
     inkscape:window-width="2736"
     inkscape:window-height="1744"
     inkscape:window-x="0"
     inkscape:window-y="0"
     inkscape:window-maximized="1"
     inkscape:current-layer="svg1"
     showgrid="false" />
  <g
     transform="matrix(1 0 0 -1 0 1536)"
     id="g1">
    <path
       id="path1"
       d="M 258.3125 934.03906 L 258.3125 653.85938 L 335.62695 653.85938 L 335.62695 934.03906 L 258.3125 934.03906 z M 552.71484 890.46289 L 552.71484 810.94727 C 623.85832 805.36735 690.46983 778.5136 752.54688 730.38672 C 752.54688 731.08464 771.72952 750.96246 810.0918 790.02148 L 808 787.92969 C 731.97168 850.00707 646.87532 884.18554 552.71484 890.46289 z M 868.68164 736.66406 L 865.54297 734.57227 L 863.73438 732.70703 L 868.68164 736.66406 z M 863.73438 732.70703 L 863.45117 732.48047 C 863.46117 732.46927 863.47087 732.45651 863.48047 732.44531 L 863.73438 732.70703 z M 863.48047 732.44531 L 832.0625 700.04492 C 816.02042 683.30546 808 674.58658 808 673.88867 C 856.12736 618.78713 884.72398 553.22204 893.79102 477.19531 L 973.30664 477.19531 C 964.24095 574.13215 927.63159 659.21727 863.48047 732.44531 z M 258.3125 572.29492 L 258.3125 292.11523 L 335.62695 292.11523 L 335.62695 572.29492 L 258.3125 572.29492 z M 893.78906 399.77148 C 886.81403 321.65084 860.31004 253.99453 814.27539 196.80078 C 850.45608 159.99585 867.60873 142.22222 870.87305 138.33398 C 932.18891 211.54601 966.33545 298.68988 973.30664 399.77148 L 893.78906 399.77148 z M 870.87305 138.33398 C 870.83945 138.29378 870.80704 138.25091 870.77344 138.21094 L 873.91211 135.07227 C 873.98571 135.07227 871.25865 137.8747 870.87305 138.33398 z M 258.3125 210.55078 L 258.3125 -69.628906 L 335.62695 -69.628906 L 335.62695 210.55078 L 258.3125 210.55078 z M 758.82422 138.21094 C 696.04966 90.083958 627.34548 61.835305 552.71289 53.464844 L 552.71289 -26.050781 C 648.96728 -19.772641 736.15587 16.498038 814.27539 82.759766 L 758.82422 138.21094 z M 787.10547 -126.04297 C 720.73378 -152.95041 648.08281 -178.9606 569.1543 -204.07422 C 492.01961 -229.18784 411.29829 -254.30239 326.98828 -279.41602 L 318.91602 -368.21094 C 424.75197 -334.12817 504.57768 -308.11603 558.39258 -290.17773 C 612.20746 -272.23944 650.77396 -257.88993 674.09375 -247.12695 C 715.35184 -230.98248 745.84795 -216.63103 765.58008 -204.07422 C 787.10604 -191.51741 795.17836 -170.88877 789.79688 -142.1875 L 787.10547 -126.04297 z M 808.63281 -265.96289 C 668.71409 -319.77779 514.44226 -370.90058 345.82227 -419.33398 L 337.75 -508.12891 C 414.88467 -484.80912 474.97933 -465.97369 518.03125 -451.62305 C 562.877 -437.2724 605.03184 -422.9229 644.49609 -408.57227 C 701.89866 -388.84014 743.15787 -370.90033 768.27148 -354.75586 C 795.17894 -340.40522 808.63281 -316.19018 808.63281 -282.10742 L 808.63281 -265.96289 z " />
  </g>
</svg>
