<?xml version="1.0" encoding="UTF-8" standalone="no"?>
<!-- Accent from Roboto font family (Regular). Apache License, Version 2.0. -->

<svg
   version="1.1"
   viewBox="-20 0 1168 2048"
   id="svg1"
   sodipodi:docname="combining_dammatan.svg"
   inkscape:version="1.3.2 (091e20ef0f, 2023-11-25)"
   xmlns:inkscape="http://www.inkscape.org/namespaces/inkscape"
   xmlns:sodipodi="http://sodipodi.sourceforge.net/DTD/sodipodi-0.dtd"
   xmlns="http://www.w3.org/2000/svg"
   xmlns:svg="http://www.w3.org/2000/svg">
  <defs
     id="defs1" />
  <sodipodi:namedview
     id="namedview1"
     pagecolor="#ffffff"
     bordercolor="#000000"
     borderopacity="0.25"
     inkscape:showpageshadow="2"
     inkscape:pageopacity="0.0"
     inkscape:pagecheckerboard="0"
     inkscape:deskcolor="#d1d1d1"
     inkscape:zoom="0.72403155"
     inkscape:cx="424.01467"
     inkscape:cy="671.24147"
     inkscape:window-width="2736"
     inkscape:window-height="1744"
     inkscape:window-x="0"
     inkscape:window-y="0"
     inkscape:window-maximized="1"
     inkscape:current-layer="g1"
     showgrid="false" />
  <g
     transform="matrix(1 0 0 -1 0 1536)"
     id="g1">
    <path
       id="path1"
       d="M 684.47461 1518.3086 C 648.59802 1518.3086 613.61792 1501.2664 579.53516 1467.1836 C 545.4524 1433.1008 528.41211 1395.4299 528.41211 1354.1719 C 528.41211 1303.9447 561.59705 1260.8942 627.96875 1225.0176 C 584.91683 1192.7286 531.10326 1168.5117 466.52539 1152.3672 C 473.7007 1173.8932 477.28711 1197.2125 477.28711 1222.3262 C 477.28711 1286.904 453.9677 1319.1934 407.32812 1319.1934 C 369.6577 1319.1934 323.91451 1284.2133 270.09961 1214.2539 L 291.625 1187.3457 C 338.26457 1210.6655 367.86311 1222.3262 380.41992 1222.3262 C 398.35821 1222.3262 407.32813 1208.8723 407.32812 1181.9648 L 396.56445 1112.0059 C 396.56445 1108.4182 406.43193 1098.5507 426.16406 1082.4062 C 445.89619 1068.0556 458.4525 1060.8809 463.83398 1060.8809 C 488.9476 1060.8809 526.61847 1075.2324 576.8457 1103.9336 C 627.07293 1134.4288 669.22779 1166.7181 703.31055 1200.8008 L 740.98047 1198.1094 C 810.93983 1192.7279 846.81751 1217.8424 848.61133 1273.4512 L 808.25 1273.4512 C 793.89935 1275.245 779.54791 1277.0381 765.19727 1278.832 C 772.37258 1291.3888 775.96094 1313.8107 775.96094 1346.0996 C 775.96094 1408.8837 766.99103 1452.8336 749.05273 1477.9473 C 727.52678 1504.8547 706.00057 1518.3086 684.47461 1518.3086 z M 652.18555 1434.8945 C 671.91768 1434.8945 686.26913 1425.0291 695.23828 1405.2969 C 704.20743 1387.3586 708.69141 1365.8324 708.69141 1340.7188 C 708.69141 1335.3373 707.79578 1329.9557 706.00195 1324.5742 C 706.00195 1319.1927 705.10438 1312.9155 703.31055 1305.7402 L 700.61914 1292.2852 C 628.86595 1319.1926 592.99023 1352.3795 592.99023 1391.8438 C 592.99023 1400.8128 598.37179 1409.7808 609.13477 1418.75 C 621.69157 1429.513 636.04108 1434.8945 652.18555 1434.8945 z M 258.62305 934.19922 L 258.62305 654.01953 L 335.9375 654.01953 L 335.9375 934.19922 L 258.62305 934.19922 z M 553.02539 890.62305 L 553.02539 811.10742 C 624.16887 805.52751 690.78037 778.67376 752.85742 730.54688 C 752.85742 731.24479 772.03811 751.12262 810.40039 790.18164 L 808.30859 788.08984 C 732.28027 850.16721 647.18587 884.34565 553.02539 890.62305 z M 868.99219 736.82422 L 865.85352 734.73242 L 864.04297 732.86719 L 868.99219 736.82422 z M 864.04297 732.86719 L 863.75977 732.64062 C 863.76977 732.62943 863.78142 732.61667 863.79102 732.60547 L 864.04297 732.86719 z M 863.79102 732.60547 L 832.37305 700.20508 C 816.33096 683.46561 808.30859 674.74674 808.30859 674.04883 C 856.43596 618.94728 885.03453 553.38219 894.10156 477.35547 L 973.61719 477.35547 C 964.5515 574.2923 927.94214 659.37742 863.79102 732.60547 z M 258.62305 572.45508 L 258.62305 292.27539 L 335.9375 292.27539 L 335.9375 572.45508 L 258.62305 572.45508 z M 894.09961 399.93164 C 887.12458 321.811 860.62059 254.15469 814.58594 196.96094 C 850.76663 160.156 867.91732 142.38238 871.18164 138.49414 C 932.4975 211.70617 966.64404 298.85003 973.61523 399.93164 L 894.09961 399.93164 z M 871.18164 138.49414 C 871.14804 138.45394 871.11758 138.41106 871.08398 138.37109 L 874.2207 135.23242 C 874.2943 135.23242 871.56724 138.03486 871.18164 138.49414 z M 258.62305 210.71094 L 258.62305 -69.46875 L 335.9375 -69.46875 L 335.9375 210.71094 L 258.62305 210.71094 z M 759.13477 138.37109 C 696.36021 90.244109 627.65602 61.995462 553.02344 53.625 L 553.02344 -25.890625 C 649.27783 -19.612481 736.46642 16.658198 814.58594 82.919922 L 759.13477 138.37109 z " />
  </g>
</svg>
