<?xml version="1.0" encoding="UTF-8" standalone="no"?>
<!-- Accent from Roboto font family (Regular). Apache License, Version 2.0. -->

<svg
   version="1.1"
   viewBox="-20 0 1168 2048"
   id="svg1"
   sodipodi:docname="combining_alef_below.svg"
   inkscape:version="1.3.2 (091e20ef0f, 2023-11-25)"
   xmlns:inkscape="http://www.inkscape.org/namespaces/inkscape"
   xmlns:sodipodi="http://sodipodi.sourceforge.net/DTD/sodipodi-0.dtd"
   xmlns="http://www.w3.org/2000/svg"
   xmlns:svg="http://www.w3.org/2000/svg">
  <defs
     id="defs1" />
  <sodipodi:namedview
     id="namedview1"
     pagecolor="#ffffff"
     bordercolor="#000000"
     borderopacity="0.25"
     inkscape:showpageshadow="2"
     inkscape:pageopacity="0.0"
     inkscape:pagecheckerboard="0"
     inkscape:deskcolor="#d1d1d1"
     inkscape:zoom="0.3683762"
     inkscape:cx="632.50557"
     inkscape:cy="784.52408"
     inkscape:window-width="2736"
     inkscape:window-height="1744"
     inkscape:window-x="0"
     inkscape:window-y="0"
     inkscape:window-maximized="1"
     inkscape:current-layer="g1"
     showgrid="false" />
  <g
     transform="matrix(1 0 0 -1 0 1536)"
     id="g1">
    <path
       id="path1"
       d="m 572.04739,-115.33059 c -28.70127,-10.7628 -52.02068,-30.496 -69.95899,-59.1972 -17.93829,-26.9075 -26.9082,-58.2991 -26.9082,-94.1758 0,-14.3507 2.69077,-34.0836 8.07227,-59.1973 16.14446,-60.9901 27.80514,-126.4645 34.98047,-196.4238 7.17531,-68.1655 10.76367,-139.0212 10.76367,-212.56835 l 16.14453,-5.38282 c 44.84573,62.78407 67.26758,139.02337 67.26758,228.71487 0,41.2579 -0.89758,78.9288 -2.69141,113.0117 0,34.0828 -2.69078,72.6492 -8.07227,115.7012 -5.38149,44.8457 -15.24701,101.352 -29.59765,169.5175 z M 258.31055,934.70703 V 654.52734 H 335.625 v 280.17969 z m 294.40234,-43.57617 v -79.51563 c 71.14348,-5.57989 137.75498,-32.43366 199.83203,-80.56054 0,0.69792 19.18264,20.5777 57.54492,59.63672 l -2.09179,-2.09375 c -76.02833,62.07733 -161.12468,96.25581 -255.28516,102.5332 z m 315.9668,-153.79883 -3.13867,-2.0918 -1.8086,-1.86523 z m -4.94727,-3.95703 -0.2832,-0.22656 c 0.01,-0.0112 0.0197,-0.024 0.0293,-0.0352 z m -0.2539,-0.26172 -31.41797,-32.39844 c -16.04209,-16.73946 -24.0625,-25.45834 -24.0625,-26.15625 48.12736,-55.10154 76.72398,-120.66858 85.79101,-196.69531 h 79.51563 c -9.06569,96.93683 -45.67505,182.02195 -109.82617,255.25 z M 258.31055,572.96289 V 292.78516 H 335.625 V 572.96289 Z M 893.78711,400.44141 c -6.97503,-78.12065 -33.47902,-145.77891 -79.51367,-202.97266 36.18069,-36.80493 53.33334,-54.57856 56.59765,-58.4668 61.31586,73.21203 95.46045,160.35785 102.43164,261.43946 z M 870.87109,139.00195 c -0.0336,-0.0402 -0.066,-0.0831 -0.0996,-0.12304 l 3.13868,-3.13868 c 0.0736,0 -2.65347,2.80244 -3.03907,3.26172 z m -612.56054,72.2168 V -68.960938 H 335.625 V 211.21875 Z M 758.82227,138.87891 C 696.04771,90.751927 627.34352,62.503274 552.71094,54.132812 v -79.515624 c 96.25439,6.278143 183.44298,42.548823 261.5625,108.810546 z"
       sodipodi:nodetypes="ccsccccscccccccccccccccccccccccccccccccccccccccccccccccccccc" />
  </g>
</svg>
