<?xml version="1.0" standalone="no"?>
<!-- Accent from Roboto font family (Regular). Apache License, Version 2.0. -->
<!DOCTYPE svg PUBLIC "-//W3C//DTD SVG 1.1//EN" "http://www.w3.org/Graphics/SVG/1.1/DTD/svg11.dtd" >
<svg xmlns="http://www.w3.org/2000/svg" xmlns:xlink="http://www.w3.org/1999/xlink" version="1.1" viewBox="-19 0 1167 2048">
  <g transform="matrix(1 0 0 -1 0 1536)">
   <path fill="currentColor"
d="M931 1003l-69 -70q-112 86 -250 99v99q176 -12 319 -128zM517 1032q-133 -10 -250 -101q0 1 -72 74l3 -2q143 116 319 128v-99zM198 860q-90 -103 -108 -246h-99q17 182 137 319l-6 6l4 -3l41 -43q31 -32 31 -33zM1138 614h-100q-17 141 -107 249l70 70
q120 -137 137 -319zM1138 518q-14 -190 -130 -327l-69 70q86 111 99 257h100zM190 264q-76 -77 -75 -77l4 4q-115 137 -128 327h99q14 -147 100 -254zM939 121q-146 -124 -327 -136v100q140 12 258 106zM517 -15q-180 12 -327 136l69 70q118 -90 258 -106v-100zM687 0
q-70 -52 -109.5 -99.5t-39.5 -101.5q0 -42 22.5 -66t73.5 -24q27 0 50 7.5t49 18.5l33 -123q-36 -19 -79.5 -31.5t-103.5 -12.5q-95 0 -155.5 55t-60.5 154q0 80 60.5 152t187.5 128z" />
  </g>

</svg>
