<?xml version="1.0" standalone="no"?>
<!-- Accent from Roboto font family (Regular). Apache License, Version 2.0. -->
<!DOCTYPE svg PUBLIC "-//W3C//DTD SVG 1.1//EN" "http://www.w3.org/Graphics/SVG/1.1/DTD/svg11.dtd" >
<svg xmlns="http://www.w3.org/2000/svg" xmlns:xlink="http://www.w3.org/1999/xlink" version="1.1" viewBox="-20 0 1168 2048">
  <g transform="matrix(1 0 0 -1 0 1536)">
   <path fill="currentColor"
d="M931.256 1002.78l-69.3145 -69.3145q-112.472 86.3159 -249.792 98.0859v99.3945q176.555 -11.7715 319.106 -128.166zM516.679 1031.55q-133.396 -10.4619 -249.792 -100.701q0 1.30811 -71.9297 74.5449l2.61523 -2.61523q142.553 116.395 319.106 128.166v-99.3945z
M197.572 860.229q-90.2388 -103.317 -107.24 -245.868h-99.3936q17.001 181.786 137.32 319.105l-6.53906 5.23145l3.92285 -2.61523l41.8506 -43.1582q30.0791 -31.3872 30.0791 -32.6953zM1137.89 614.361h-99.3936q-17.001 141.243 -107.24 248.484l69.3135 70.6211
q120.319 -137.32 137.32 -319.105zM1137.89 517.583q-14.3862 -189.633 -129.474 -326.953l-69.3135 70.6221q86.3159 111.164 99.3936 256.331h99.3936zM189.726 263.867q-75.8525 -77.1606 -74.5449 -77.1611l3.92285 3.92383q-115.087 137.32 -128.165 326.953h99.3936
q13.0781 -146.476 99.3936 -253.716zM939.103 121.315q-146.476 -124.242 -326.953 -136.013v99.3945q139.935 11.77 257.639 105.933zM516.679 -14.6973q-180.478 11.7715 -326.953 136.013l69.3145 69.3145q117.703 -90.2388 257.639 -105.933v-99.3945zM863 1304v-25
h-161l-147 148l-146 -148h-160v26l246 237h120z"/>
  </g>

</svg>
