<?xml version="1.0" encoding="UTF-8" standalone="no"?>
<!-- https://commons.wikimedia.org/wiki/File:Macron.svg -->
<!-- Created with Inkscape (http://www.inkscape.org/) -->

<svg
   xmlns:dc="http://purl.org/dc/elements/1.1/"
   xmlns:cc="http://creativecommons.org/ns#"
   xmlns:rdf="http://www.w3.org/1999/02/22-rdf-syntax-ns#"
   xmlns:svg="http://www.w3.org/2000/svg"
   xmlns="http://www.w3.org/2000/svg"
   xmlns:sodipodi="http://sodipodi.sourceforge.net/DTD/sodipodi-0.dtd"
   xmlns:inkscape="http://www.inkscape.org/namespaces/inkscape"
   width="122.09333"
   height="159.58667"
   viewBox="0 0 32.30386 42.223974"
   version="1.1"
   id="svg8"
   inkscape:version="0.92.2 (5c3e80d, 2017-08-06)"
   sodipodi:docname="Macron.svg">
  <defs
     id="defs2" />
  <sodipodi:namedview
     id="base"
     pagecolor="#ffffff"
     bordercolor="#666666"
     borderopacity="1.0"
     inkscape:pageopacity="0.0"
     inkscape:pageshadow="2"
     inkscape:zoom="1.979899"
     inkscape:cx="43.903801"
     inkscape:cy="104.89849"
     inkscape:document-units="mm"
     inkscape:current-layer="layer1"
     showgrid="false"
     units="px"
     fit-margin-top="0"
     fit-margin-left="0"
     fit-margin-right="0"
     fit-margin-bottom="0"
     inkscape:window-width="1366"
     inkscape:window-height="705"
     inkscape:window-x="-8"
     inkscape:window-y="-8"
     inkscape:window-maximized="1"
     inkscape:object-nodes="false" />
  <metadata
     id="metadata5">
    <rdf:RDF>
      <cc:Work
         rdf:about="">
        <dc:format>image/svg+xml</dc:format>
        <dc:type
           rdf:resource="http://purl.org/dc/dcmitype/StillImage" />
        <dc:title />
      </cc:Work>
    </rdf:RDF>
  </metadata>
  <g
     inkscape:label="Layer 1"
     inkscape:groupmode="layer"
     id="layer1"
     transform="translate(-94.217119,-150.39992)">
    <g
       style="stroke-width:0.1"
       id="g754"
       transform="matrix(3.5277777,0,0,3.5277777,-691.23553,-779.3212)">
      <path
         d="m 223.117,271.371 c -0.312,0 -0.469,-0.144 -0.469,-0.437 0,-0.289 0.157,-0.438 0.469,-0.438 0.289,0 0.438,0.149 0.438,0.438 0,0.293 -0.149,0.437 -0.438,0.437 z m -0.14,-2.016 c 0,-0.3 0.144,-0.453 0.437,-0.453 0.301,0 0.453,0.153 0.453,0.453 0,0.305 -0.14,0.454 -0.422,0.454 -0.312,0 -0.468,-0.149 -0.468,-0.454 z m 0.89,-1.328 c 0,-0.312 0.145,-0.468 0.438,-0.468 0.3,0 0.453,0.152 0.453,0.453 0,0.293 -0.153,0.437 -0.453,0.437 -0.293,0 -0.438,-0.14 -0.438,-0.422 z m 1.344,-0.906 c 0,-0.301 0.144,-0.453 0.437,-0.453 0.301,0 0.454,0.152 0.454,0.453 0,0.293 -0.153,0.438 -0.454,0.438 -0.293,0 -0.437,-0.145 -0.437,-0.438 z m 1.578,-0.328 c 0,-0.289 0.145,-0.438 0.438,-0.438 0.289,0 0.437,0.149 0.437,0.438 0,0.312 -0.148,0.469 -0.437,0.469 -0.293,0 -0.438,-0.157 -0.438,-0.469 z m 2.016,-0.125 c 0.3,0 0.453,0.152 0.453,0.453 0,0.293 -0.153,0.438 -0.453,0.438 -0.305,0 -0.453,-0.145 -0.453,-0.438 0,-0.301 0.148,-0.453 0.453,-0.453 z m 1.343,0.891 c 0.29,0 0.438,0.152 0.438,0.453 0,0.293 -0.148,0.437 -0.438,0.437 -0.304,0 -0.453,-0.144 -0.453,-0.437 0,-0.301 0.149,-0.453 0.453,-0.453 z m 0.907,1.343 c 0.289,0 0.437,0.153 0.437,0.453 0,0.305 -0.152,0.454 -0.453,0.454 -0.305,0 -0.453,-0.149 -0.453,-0.454 0,-0.3 0.156,-0.453 0.469,-0.453 z m 0.312,1.594 c 0.289,0 0.438,0.149 0.438,0.438 0,0.293 -0.149,0.437 -0.438,0.437 -0.312,0 -0.469,-0.144 -0.469,-0.437 0,-0.289 0.157,-0.438 0.469,-0.438 z m 0.125,2.016 c 0,0.293 -0.152,0.437 -0.453,0.437 -0.305,0 -0.453,-0.144 -0.453,-0.437 0,-0.301 0.148,-0.453 0.453,-0.453 0.301,0 0.453,0.152 0.453,0.453 z m -0.906,1.343 c 0,0.293 -0.148,0.438 -0.438,0.438 -0.293,0 -0.437,-0.145 -0.437,-0.438 0,-0.3 0.144,-0.453 0.437,-0.453 0.29,0 0.438,0.153 0.438,0.453 z m -1.328,0.875 c 0,0.305 -0.153,0.454 -0.453,0.454 -0.293,0 -0.438,-0.149 -0.438,-0.454 0,-0.3 0.145,-0.453 0.438,-0.453 0.3,0 0.453,0.153 0.453,0.453 z m -1.594,0.313 c 0,0.312 -0.148,0.469 -0.437,0.469 -0.293,0 -0.438,-0.157 -0.438,-0.469 0,-0.289 0.145,-0.438 0.438,-0.438 0.289,0 0.437,0.149 0.437,0.438 z m -2.016,0.141 c -0.293,0 -0.437,-0.149 -0.437,-0.454 0,-0.3 0.144,-0.453 0.437,-0.453 0.301,0 0.454,0.149 0.454,0.438 0,0.312 -0.153,0.469 -0.454,0.469 z m -1.328,-0.891 c -0.304,0 -0.453,-0.145 -0.453,-0.438 0,-0.3 0.145,-0.453 0.438,-0.453 0.3,0 0.453,0.153 0.453,0.453 0,0.293 -0.149,0.438 -0.438,0.438 z m -0.906,-1.344 c -0.293,0 -0.437,-0.144 -0.437,-0.437 0,-0.301 0.144,-0.453 0.437,-0.453 0.301,0 0.453,0.152 0.453,0.453 0,0.293 -0.152,0.437 -0.453,0.437 z"
         style="fill:#808080;fill-opacity:1;fill-rule:nonzero;stroke:none;stroke-width:0.1"
         id="path362"
         inkscape:connector-curvature="0" />
      <path
         d="m 223.816,263.543 h 6.859 v 1.188 h -6.859 z"
         style="fill:#000000;fill-opacity:1;fill-rule:nonzero;stroke:none;stroke-width:0.1"
         id="path364"
         inkscape:connector-curvature="0" />
    </g>
  </g>
</svg>
