<?xml version="1.0" encoding="UTF-8" standalone="no"?>
<!-- https://commons.wikimedia.org/wiki/File:Ring_above.svg -->
<!-- Created with Inkscape (http://www.inkscape.org/) -->

<svg
   xmlns:dc="http://purl.org/dc/elements/1.1/"
   xmlns:cc="http://creativecommons.org/ns#"
   xmlns:rdf="http://www.w3.org/1999/02/22-rdf-syntax-ns#"
   xmlns:svg="http://www.w3.org/2000/svg"
   xmlns="http://www.w3.org/2000/svg"
   xmlns:sodipodi="http://sodipodi.sourceforge.net/DTD/sodipodi-0.dtd"
   xmlns:inkscape="http://www.inkscape.org/namespaces/inkscape"
   width="122.09333"
   height="183.33333"
   viewBox="0 0 32.30386 48.506944"
   version="1.1"
   id="svg8"
   inkscape:version="0.92.2 (5c3e80d, 2017-08-06)"
   sodipodi:docname="Ring above.svg">
  <defs
     id="defs2" />
  <sodipodi:namedview
     id="base"
     pagecolor="#ffffff"
     bordercolor="#666666"
     borderopacity="1.0"
     inkscape:pageopacity="0.0"
     inkscape:pageshadow="2"
     inkscape:zoom="1.4"
     inkscape:cx="55.332374"
     inkscape:cy="71.666613"
     inkscape:document-units="mm"
     inkscape:current-layer="layer1"
     showgrid="false"
     units="px"
     fit-margin-top="0"
     fit-margin-left="0"
     fit-margin-right="0"
     fit-margin-bottom="0"
     inkscape:window-width="1366"
     inkscape:window-height="705"
     inkscape:window-x="-8"
     inkscape:window-y="-8"
     inkscape:window-maximized="1" />
  <metadata
     id="metadata5">
    <rdf:RDF>
      <cc:Work
         rdf:about="">
        <dc:format>image/svg+xml</dc:format>
        <dc:type
           rdf:resource="http://purl.org/dc/dcmitype/StillImage" />
        <dc:title></dc:title>
      </cc:Work>
    </rdf:RDF>
  </metadata>
  <g
     inkscape:label="Layer 1"
     inkscape:groupmode="layer"
     id="layer1"
     transform="translate(-91.193309,-141.96674)">
    <g
       style="stroke-width:0.1"
       id="g941"
       transform="matrix(3.5277777,0,0,3.5277777,-694.25934,-1619.6608)">
      <path
         d="m 223.117,508.969 c -0.312,0 -0.469,-0.145 -0.469,-0.438 0,-0.289 0.157,-0.437 0.469,-0.437 0.289,0 0.438,0.148 0.438,0.437 0,0.293 -0.149,0.438 -0.438,0.438 z m -0.14,-2.016 c 0,-0.301 0.144,-0.453 0.437,-0.453 0.301,0 0.453,0.152 0.453,0.453 0,0.305 -0.14,0.453 -0.422,0.453 -0.312,0 -0.468,-0.148 -0.468,-0.453 z m 0.89,-1.328 c 0,-0.312 0.145,-0.469 0.438,-0.469 0.3,0 0.453,0.153 0.453,0.453 0,0.293 -0.153,0.438 -0.453,0.438 -0.293,0 -0.438,-0.141 -0.438,-0.422 z m 1.344,-0.906 c 0,-0.301 0.144,-0.453 0.437,-0.453 0.301,0 0.454,0.152 0.454,0.453 0,0.293 -0.153,0.437 -0.454,0.437 -0.293,0 -0.437,-0.144 -0.437,-0.437 z m 1.578,-0.328 c 0,-0.289 0.145,-0.438 0.438,-0.438 0.289,0 0.437,0.149 0.437,0.438 0,0.312 -0.148,0.468 -0.437,0.468 -0.293,0 -0.438,-0.156 -0.438,-0.468 z m 2.016,-0.125 c 0.3,0 0.453,0.152 0.453,0.453 0,0.293 -0.153,0.437 -0.453,0.437 -0.305,0 -0.453,-0.144 -0.453,-0.437 0,-0.301 0.148,-0.453 0.453,-0.453 z m 1.343,0.89 c 0.29,0 0.438,0.153 0.438,0.453 0,0.293 -0.148,0.438 -0.438,0.438 -0.304,0 -0.453,-0.145 -0.453,-0.438 0,-0.3 0.149,-0.453 0.453,-0.453 z m 0.907,1.344 c 0.289,0 0.437,0.152 0.437,0.453 0,0.305 -0.152,0.453 -0.453,0.453 -0.305,0 -0.453,-0.148 -0.453,-0.453 0,-0.301 0.156,-0.453 0.469,-0.453 z m 0.312,1.594 c 0.289,0 0.438,0.148 0.438,0.437 0,0.293 -0.149,0.438 -0.438,0.438 -0.312,0 -0.469,-0.145 -0.469,-0.438 0,-0.289 0.157,-0.437 0.469,-0.437 z m 0.125,2.015 c 0,0.293 -0.152,0.438 -0.453,0.438 -0.305,0 -0.453,-0.145 -0.453,-0.438 0,-0.3 0.148,-0.453 0.453,-0.453 0.301,0 0.453,0.153 0.453,0.453 z m -0.906,1.344 c 0,0.293 -0.148,0.438 -0.438,0.438 -0.293,0 -0.437,-0.145 -0.437,-0.438 0,-0.301 0.144,-0.453 0.437,-0.453 0.29,0 0.438,0.152 0.438,0.453 z m -1.328,0.875 c 0,0.305 -0.153,0.453 -0.453,0.453 -0.293,0 -0.438,-0.148 -0.438,-0.453 0,-0.301 0.145,-0.453 0.438,-0.453 0.3,0 0.453,0.152 0.453,0.453 z m -1.594,0.313 c 0,0.312 -0.148,0.468 -0.437,0.468 -0.293,0 -0.438,-0.156 -0.438,-0.468 0,-0.289 0.145,-0.438 0.438,-0.438 0.289,0 0.437,0.149 0.437,0.438 z m -2.016,0.14 c -0.293,0 -0.437,-0.148 -0.437,-0.453 0,-0.301 0.144,-0.453 0.437,-0.453 0.301,0 0.454,0.148 0.454,0.438 0,0.312 -0.153,0.468 -0.454,0.468 z m -1.328,-0.89 c -0.304,0 -0.453,-0.145 -0.453,-0.438 0,-0.301 0.145,-0.453 0.438,-0.453 0.3,0 0.453,0.152 0.453,0.453 0,0.293 -0.149,0.438 -0.438,0.438 z m -0.906,-1.344 c -0.293,0 -0.437,-0.145 -0.437,-0.438 0,-0.3 0.144,-0.453 0.437,-0.453 0.301,0 0.453,0.153 0.453,0.453 0,0.293 -0.152,0.438 -0.453,0.438 z"
         style="fill:#808080;fill-opacity:1;fill-rule:nonzero;stroke:none;stroke-width:0.1"
         id="path386"
         inkscape:connector-curvature="0" />
      <path
         d="m 229.426,501.547 c 0,0.605 -0.211,1.121 -0.641,1.547 -0.426,0.429 -0.941,0.64 -1.547,0.64 -0.593,0 -1.109,-0.211 -1.547,-0.64 -0.437,-0.426 -0.656,-0.942 -0.656,-1.547 0,-0.594 0.219,-1.102 0.656,-1.531 0.438,-0.438 0.954,-0.657 1.547,-0.657 0.606,0 1.121,0.219 1.547,0.657 0.43,0.429 0.641,0.937 0.641,1.531 z m -0.844,0 c 0,-0.352 -0.129,-0.664 -0.391,-0.938 -0.269,-0.281 -0.586,-0.421 -0.953,-0.421 -0.363,0 -0.679,0.136 -0.953,0.406 -0.269,0.273 -0.406,0.59 -0.406,0.953 0,0.367 0.141,0.683 0.422,0.953 0.273,0.262 0.586,0.391 0.937,0.391 0.356,0 0.668,-0.133 0.938,-0.407 0.273,-0.269 0.406,-0.582 0.406,-0.937 z"
         style="fill:#000000;fill-opacity:1;fill-rule:nonzero;stroke:none;stroke-width:0.1"
         id="path388"
         inkscape:connector-curvature="0" />
    </g>
  </g>
</svg>
