<?xml version="1.0" encoding="UTF-8" standalone="no"?>
<!-- https://commons.wikimedia.org/wiki/File:Tilde_(diacritic).svg -->
<!-- Created with Inkscape (http://www.inkscape.org/) -->

<svg
   xmlns:dc="http://purl.org/dc/elements/1.1/"
   xmlns:cc="http://creativecommons.org/ns#"
   xmlns:rdf="http://www.w3.org/1999/02/22-rdf-syntax-ns#"
   xmlns:svg="http://www.w3.org/2000/svg"
   xmlns="http://www.w3.org/2000/svg"
   xmlns:sodipodi="http://sodipodi.sourceforge.net/DTD/sodipodi-0.dtd"
   xmlns:inkscape="http://www.inkscape.org/namespaces/inkscape"
   width="122.09333"
   height="170.62666"
   viewBox="0 0 32.30386 45.144973"
   version="1.1"
   id="svg8"
   inkscape:version="0.92.2 (5c3e80d, 2017-08-06)"
   sodipodi:docname="Tilde.svg">
  <defs
     id="defs2" />
  <sodipodi:namedview
     id="base"
     pagecolor="#ffffff"
     bordercolor="#666666"
     borderopacity="1.0"
     inkscape:pageopacity="0.0"
     inkscape:pageshadow="2"
     inkscape:zoom="1.4"
     inkscape:cx="-47.524747"
     inkscape:cy="102.45622"
     inkscape:document-units="mm"
     inkscape:current-layer="layer1"
     showgrid="false"
     units="px"
     fit-margin-top="0"
     fit-margin-left="0"
     fit-margin-right="0"
     fit-margin-bottom="0"
     inkscape:window-width="1366"
     inkscape:window-height="705"
     inkscape:window-x="-8"
     inkscape:window-y="-8"
     inkscape:window-maximized="1" />
  <metadata
     id="metadata5">
    <rdf:RDF>
      <cc:Work
         rdf:about="">
        <dc:format>image/svg+xml</dc:format>
        <dc:type
           rdf:resource="http://purl.org/dc/dcmitype/StillImage" />
        <dc:title></dc:title>
      </cc:Work>
    </rdf:RDF>
  </metadata>
  <g
     inkscape:label="Layer 1"
     inkscape:groupmode="layer"
     id="layer1"
     transform="translate(-118.40759,-161.03466)">
    <g
       style="stroke-width:0.1"
       id="g726"
       transform="matrix(3.5277777,0,0,3.5277777,-667.04506,-626.07252)">
      <path
         d="m 223.117,231.773 c -0.312,0 -0.469,-0.144 -0.469,-0.437 0,-0.289 0.157,-0.438 0.469,-0.438 0.289,0 0.438,0.149 0.438,0.438 0,0.293 -0.149,0.437 -0.438,0.437 z m -0.14,-2.015 c 0,-0.301 0.144,-0.453 0.437,-0.453 0.301,0 0.453,0.152 0.453,0.453 0,0.305 -0.14,0.453 -0.422,0.453 -0.312,0 -0.468,-0.148 -0.468,-0.453 z m 0.89,-1.328 c 0,-0.313 0.145,-0.469 0.438,-0.469 0.3,0 0.453,0.152 0.453,0.453 0,0.293 -0.153,0.438 -0.453,0.438 -0.293,0 -0.438,-0.141 -0.438,-0.422 z m 1.344,-0.907 c 0,-0.3 0.144,-0.453 0.437,-0.453 0.301,0 0.454,0.153 0.454,0.453 0,0.293 -0.153,0.438 -0.454,0.438 -0.293,0 -0.437,-0.145 -0.437,-0.438 z m 1.578,-0.328 c 0,-0.289 0.145,-0.437 0.438,-0.437 0.289,0 0.437,0.148 0.437,0.437 0,0.313 -0.148,0.469 -0.437,0.469 -0.293,0 -0.438,-0.156 -0.438,-0.469 z m 2.016,-0.125 c 0.3,0 0.453,0.153 0.453,0.453 0,0.293 -0.153,0.438 -0.453,0.438 -0.305,0 -0.453,-0.145 -0.453,-0.438 0,-0.3 0.148,-0.453 0.453,-0.453 z m 1.343,0.891 c 0.29,0 0.438,0.152 0.438,0.453 0,0.293 -0.148,0.438 -0.438,0.438 -0.304,0 -0.453,-0.145 -0.453,-0.438 0,-0.301 0.149,-0.453 0.453,-0.453 z m 0.907,1.344 c 0.289,0 0.437,0.152 0.437,0.453 0,0.305 -0.152,0.453 -0.453,0.453 -0.305,0 -0.453,-0.148 -0.453,-0.453 0,-0.301 0.156,-0.453 0.469,-0.453 z m 0.312,1.593 c 0.289,0 0.438,0.149 0.438,0.438 0,0.293 -0.149,0.437 -0.438,0.437 -0.312,0 -0.469,-0.144 -0.469,-0.437 0,-0.289 0.157,-0.438 0.469,-0.438 z m 0.125,2.016 c 0,0.293 -0.152,0.438 -0.453,0.438 -0.305,0 -0.453,-0.145 -0.453,-0.438 0,-0.301 0.148,-0.453 0.453,-0.453 0.301,0 0.453,0.152 0.453,0.453 z m -0.906,1.344 c 0,0.293 -0.148,0.437 -0.438,0.437 -0.293,0 -0.437,-0.144 -0.437,-0.437 0,-0.301 0.144,-0.453 0.437,-0.453 0.29,0 0.438,0.152 0.438,0.453 z m -1.328,0.875 c 0,0.305 -0.153,0.453 -0.453,0.453 -0.293,0 -0.438,-0.148 -0.438,-0.453 0,-0.301 0.145,-0.453 0.438,-0.453 0.3,0 0.453,0.152 0.453,0.453 z m -1.594,0.312 c 0,0.313 -0.148,0.469 -0.437,0.469 -0.293,0 -0.438,-0.156 -0.438,-0.469 0,-0.289 0.145,-0.437 0.438,-0.437 0.289,0 0.437,0.148 0.437,0.437 z m -2.016,0.141 c -0.293,0 -0.437,-0.148 -0.437,-0.453 0,-0.301 0.144,-0.453 0.437,-0.453 0.301,0 0.454,0.148 0.454,0.437 0,0.313 -0.153,0.469 -0.454,0.469 z m -1.328,-0.891 c -0.304,0 -0.453,-0.144 -0.453,-0.437 0,-0.301 0.145,-0.453 0.438,-0.453 0.3,0 0.453,0.152 0.453,0.453 0,0.293 -0.149,0.437 -0.438,0.437 z m -0.906,-1.343 c -0.293,0 -0.437,-0.145 -0.437,-0.438 0,-0.301 0.144,-0.453 0.437,-0.453 0.301,0 0.453,0.152 0.453,0.453 0,0.293 -0.152,0.438 -0.453,0.438 z"
         style="fill:#808080;fill-opacity:1;fill-rule:nonzero;stroke:none;stroke-width:0.1"
         id="path358"
         inkscape:connector-curvature="0" />
      <path
         d="m 230.879,223.117 c -0.051,0.625 -0.289,1.168 -0.719,1.625 -0.445,0.481 -0.972,0.719 -1.578,0.719 -0.508,0 -1.055,-0.164 -1.641,-0.5 -0.593,-0.344 -1.078,-0.516 -1.453,-0.516 -0.269,0 -0.531,0.106 -0.781,0.313 -0.258,0.199 -0.41,0.433 -0.453,0.703 h -0.656 c 0.343,-1.477 1.152,-2.219 2.422,-2.219 0.449,0 1.011,0.168 1.687,0.5 0.68,0.324 1.117,0.485 1.313,0.485 0.625,0 1.039,-0.368 1.234,-1.11 z"
         style="fill:#000000;fill-opacity:1;fill-rule:nonzero;stroke:none;stroke-width:0.1"
         id="path360"
         inkscape:connector-curvature="0" />
    </g>
  </g>
</svg>
