<?xml version="1.0" standalone="no"?>
<!DOCTYPE svg PUBLIC "-//W3C//DTD SVG 1.1//EN" "http://www.w3.org/Graphics/SVG/1.1/DTD/svg11.dtd" >
<svg xmlns="http://www.w3.org/2000/svg" version="1.1" viewBox="-55 0 2103 2048">
   <path fill="currentColor"
d="M127.905 602.248l-6.18555 -4.94824l3.92285 2.61523zM931.256 533.22l-69.3145 69.3145q-112.472 -86.3154 -249.792 -98.0859v-99.3945q176.555 11.7715 319.106 128.166zM516.679 504.45q-133.396 10.4619 -249.792 100.701q0.0234375 -1.28516 -69.3145 -71.9297
q142.558 -116.396 319.106 -128.166v99.3945zM1137.89 1018.42q-14.3857 189.633 -129.474 326.953l-69.3135 -70.6221q86.3154 -111.164 99.3936 -256.331h99.3936zM189.726 1272.13q-86.3145 -107.239 -99.3926 -253.716h-99.3945q13.0625 189.402 127.886 326.619
q12.8672 -13.8672 70.9014 -72.9033zM939.103 1414.68q-146.476 124.242 -326.948 136.018v-99.3945q139.935 -11.7705 257.639 -105.938zM516.684 1550.7q-180.482 -11.7715 -326.958 -136.016l69.3145 -69.3145q117.703 90.2383 257.644 105.936v99.3945zM-45 926v-150
h68.7334q35.2666 -94 104.487 -173.426l39.2725 40.499q30.5068 30.9268 30.0791 32.6953q-40.5723 46.2314 -66.0537 100.231h865.861h107.714q-35.0264 -94.1494 -104.52 -173.463l-69.3135 70.6211q40.3994 48.0137 66.1191 102.842h107.714v0h74.9062v150h-1225z
M115.181 1349.29q-0.307617 0 1.73828 -2.04492l2.18457 -1.87891z" />
</svg>
