<svg xmlns="http://www.w3.org/2000/svg" viewBox="-20 0 1168 2048"><path fill="currentColor" d="m931.256 1557.78-69.314-69.314Q749.47 1574.78 612.15 1586.55v99.395q176.555-11.772 319.106-128.166zm-414.577 28.77q-133.396-10.462-249.792-100.701 0 1.309-71.93 74.545l2.616-2.615q142.554 116.396 319.106 128.166zm-319.107-171.321q-90.24-103.316-107.24-245.867H-9.062q17.002 181.786 137.32 319.104l-6.539 5.23 3.923-2.614 41.85-43.158q30.08-31.387 30.08-32.695zm940.318-245.868h-99.394q-17 141.242-107.239 248.483l69.314 70.62q120.318-137.318 137.319-319.103zm0-96.778q-14.386-189.633-129.474-326.953l-69.314 70.622q86.316 111.164 99.394 256.33zM189.726 818.867h.001q-86.315 107.239-99.394 253.716H-9.06Q4.017 882.95 119.104 745.63l-3.923-3.924q-1.308 0 74.545 77.16zm749.377-142.552Q792.627 552.073 612.151 540.3v99.394q139.935 11.77 257.639 105.935zM516.679 540.303q-180.478 11.77-326.953 136.013l69.314 69.314q117.703-90.238 257.64-105.933v-99.394zM648 1838H430v201h218z "/></svg>
