<svg xmlns="http://www.w3.org/2000/svg" viewBox="0 0 1168 2048"><path d="m931.256 1839.834-69.314-69.314q-112.472 86.315-249.792 98.086V1968q176.555-11.771 319.106-128.166zm-414.577 28.77q-133.396-10.462-249.792-100.7 0 1.308-71.93 74.544l2.616-2.615q142.554 116.396 319.106 128.166v-99.395zm-319.107-171.32q-90.24-103.317-107.24-245.868H-9.062q17.001 181.786 137.32 319.104l-6.539 5.232 3.923-2.616 41.85-43.158q30.08-31.387 30.08-32.695zm940.318-245.869h-99.394q-17 141.242-107.239 248.483l69.314 70.621q120.318-137.319 137.319-319.104zm0-96.778q-14.386-189.633-129.474-326.953l-69.314 70.622q86.316 111.164 99.394 256.331h99.394zm-948.164-253.716h.001q-86.315 107.24-99.394 253.716H-9.06q13.078-189.633 128.165-326.953l-3.923-3.924q-1.308 0 74.545 77.161zM939.103 958.37Q792.627 834.127 612.151 822.355v99.395q139.935 11.77 257.639 105.934ZM516.679 822.357Q336.201 834.128 189.726 958.37l69.314 69.314q117.703-90.238 257.64-105.933v-99.394zM792 831.054q70-52 109.5-99.5t39.5-101.5q0-42-22.5-66t-73.5-24q-27 0-50 7.5t-49 18.5l-33-123q36-19 79.5-31.5t103.5-12.5q95 0 155.5 55t60.5 154q0 80-60.5 152t-187.5 128Z"/></svg>