<?xml version="1.0" encoding="UTF-8"?>
<!-- Accent from Roboto font family (Regular). Apache License, Version 2.0. -->
<!-- edited for 2 grave accents -->
<!DOCTYPE svg PUBLIC "-//W3C//DTD SVG 1.1//EN" "http://www.w3.org/Graphics/SVG/1.1/DTD/svg11.dtd">
<svg version="1.1" viewBox="-20 0 1168 2048" xmlns="http://www.w3.org/2000/svg">
 <g fill="currentColor">
  <path d="m804 257h-158l-250-260 3-6h230z"/>
  <path d="m474 257h-158l-250-260 3-6h230z"/>
  <path d="m931.26 533.22-69.314 69.314c-74.98-57.544-158.24-90.239-249.79-98.086v-99.394c117.71 7.848 224.08 50.571 319.11 128.17zm-414.58-28.77c-88.933 6.9747-172.2 40.541-249.79 100.7 0-0.87207-23.977-25.72-71.93-74.545l2.6152 2.6152c95.033-77.6 201.4-120.32 319.11-128.17v99.394zm-319.11 171.32c-60.159 68.88-95.906 150.84-107.24 245.87h-99.394c11.334-121.19 57.107-227.56 137.32-319.1l-6.5391-5.2314 3.9228 2.6152 41.851 43.158c20.053 20.925 30.079 31.823 30.079 32.695zm940.32 245.87h-99.394c-11.334-94.16-47.081-176.99-107.24-248.48l69.314-70.621c80.213 91.547 125.99 197.91 137.32 319.1zm0 96.778c-9.5907 126.42-52.747 235.4-129.47 326.95l-69.314-70.622c57.544-74.107 90.675-159.55 99.394-256.33h99.394zm-948.16 253.72c-50.568 51.441-75.416 77.161-74.545 77.161l3.9228-3.9238c-76.727-91.547-119.45-200.53-128.16-326.95h99.394c8.7187 97.653 41.85 182.23 99.394 253.72zm749.38 142.55c-97.653 82.827-206.64 128.16-326.95 136.01v-99.394c93.293-7.8467 179.17-43.157 257.64-105.93zm-422.42 136.01c-120.32-7.848-229.3-53.185-326.95-136.01l69.314-69.314c78.467 60.159 164.35 95.469 257.64 105.93v99.394z"/>
 </g>
</svg>
