<?xml version="1.0" standalone="no"?>
<!DOCTYPE svg PUBLIC "-//W3C//DTD SVG 1.1//EN" "http://www.w3.org/Graphics/SVG/1.1/DTD/svg11.dtd" >
<svg xmlns="http://www.w3.org/2000/svg" version="1.1" viewBox="-20 0 1168 2048">
  <g transform="matrix(1 0 0 -1 0 1536)">
   <path fill="currentColor"
d="M931.256 1002.78l-69.3145 -69.3145q-112.472 86.3154 -249.792 98.0859v99.3945q176.555 -11.7715 319.106 -128.166v0zM516.679 1031.55q-133.396 -10.4619 -249.792 -100.701q0 1.30859 -71.9297 74.5449l2.61523 -2.61523q142.554 116.396 319.106 128.166v-99.3945
v0zM197.572 860.229q-90.2393 -103.316 -107.24 -245.867h-99.3936q17.001 181.786 137.32 319.104l-6.53906 5.23145l3.92285 -2.61523l41.8506 -43.1582q30.0791 -31.3867 30.0791 -32.6953v0zM1137.89 614.361h-99.3936q-17.001 141.242 -107.239 248.483
l69.3135 70.6211q120.318 -137.319 137.319 -319.104v0zM1137.89 517.583q-14.3857 -189.633 -129.474 -326.953l-69.3135 70.6221q86.3154 111.164 99.3936 256.331h99.3936v0zM189.726 263.867h0.000976562q-86.3154 107.239 -99.3936 253.716h-99.3945
q13.0781 -189.633 128.165 -326.953l-3.92285 -3.92383q-1.30762 0 74.5449 77.1611zM939.103 121.315q-146.476 -124.242 -326.952 -136.014v99.3945q139.935 11.7705 257.639 105.934zM516.679 -14.6973q-180.478 11.7715 -326.953 136.013l69.3145 69.3145
q117.703 -90.2383 257.64 -105.933v-99.3945h-0.000976562zM987 0q-70 -52 -109.5 -99.5t-39.5 -101.5q0 -42 22.5 -66t73.5 -24q27 0 50 7.5t49 18.5l33 -123q-36 -19 -79.5 -31.5t-103.5 -12.5q-95 0 -155.5 55t-60.5 154q0 80 60.5 152t187.5 128z" />
  </g>

</svg>
